<svg width="28" height="28" viewBox="0 0 28 28" fill="none" xmlns="http://www.w3.org/2000/svg">
<g clip-path="url(#clip0_1_747)">
<path fill-rule="evenodd" clip-rule="evenodd" d="M12.2512 23.9178C17.7287 24.8837 22.9521 21.2262 23.9179 15.7488C24.8837 10.2713 21.2263 5.04793 15.7488 4.0821C10.2713 3.11627 5.04799 6.77369 4.08216 12.2512C3.11633 17.7287 6.77375 22.952 12.2512 23.9178ZM13.3317 11.1858L13.1606 11.3961C12.9727 11.6271 12.8787 11.7426 12.7524 11.8075C12.6262 11.8723 12.482 11.8793 12.1937 11.8931L11.9312 11.9057C10.9165 11.9544 10.4091 11.9788 10.2272 12.3316C10.0453 12.6844 10.3093 13.132 10.8374 14.0272L10.974 14.2588C11.1241 14.5132 11.1991 14.6404 11.2175 14.7846C11.2359 14.9289 11.1956 15.0738 11.1151 15.3637L11.0417 15.6276C10.7581 16.6478 10.6163 17.1579 10.8795 17.4421C11.1427 17.7264 11.6366 17.5966 12.6244 17.3371L12.88 17.2699C13.1607 17.1962 13.3011 17.1593 13.4387 17.1835C13.5763 17.2078 13.6955 17.2905 13.9341 17.4558L14.1513 17.6063C14.9907 18.1881 15.4105 18.4789 15.755 18.3018C16.0996 18.1247 16.1408 17.5969 16.2233 16.5413L16.2446 16.2682C16.268 15.9682 16.2797 15.8182 16.3464 15.689C16.413 15.5597 16.527 15.4659 16.755 15.2782L16.9626 15.1073C17.765 14.4467 18.1662 14.1164 18.1159 13.7226C18.0657 13.3289 17.5972 13.1324 16.6604 12.7396L16.418 12.638C16.1518 12.5263 16.0187 12.4705 15.9222 12.3664C15.8258 12.2623 15.777 12.1216 15.6794 11.8403L15.5905 11.5841C15.2469 10.5941 15.0752 10.0991 14.6995 10.0328C14.3239 9.96658 13.9932 10.373 13.3317 11.1858Z" fill="white"/>
</g>
<defs>
<clipPath id="clip0_1_747">
<rect width="24" height="24" fill="white" transform="translate(4.19714) scale(1.00709) rotate(10)"/>
</clipPath>
</defs>
</svg>
