<svg width="31" height="31" viewBox="0 0 31 31" fill="none" xmlns="http://www.w3.org/2000/svg">
<path fill-rule="evenodd" clip-rule="evenodd" d="M16.5392 27.3775C23.0989 26.8036 27.9514 21.0206 27.3775 14.4609C26.8036 7.90109 21.0206 3.04859 14.4609 3.62249C7.9011 4.1964 3.04859 9.97939 3.6225 16.5392C4.1964 23.0989 9.97939 27.9514 16.5392 27.3775ZM13.8735 12.4867L13.7422 12.7796C13.5981 13.1013 13.526 13.2622 13.4015 13.375C13.2771 13.4879 13.1143 13.54 12.7888 13.6442L12.4925 13.7391C11.347 14.1057 10.7743 14.289 10.6744 14.7482C10.5745 15.2074 11.0135 15.6384 11.8917 16.5003L12.1189 16.7232C12.3685 16.9682 12.4932 17.0906 12.5585 17.2499C12.6237 17.4092 12.6221 17.5873 12.6188 17.9435L12.6157 18.2678C12.604 19.5213 12.5982 20.1481 12.9863 20.3925C13.3744 20.637 13.8994 20.3372 14.9495 19.7377L15.2212 19.5826C15.5196 19.4122 15.6688 19.327 15.8336 19.3126C15.9984 19.2982 16.1601 19.3562 16.4835 19.4721L16.778 19.5777C17.9163 19.9858 18.4854 20.1898 18.8251 19.8817C19.1649 19.5736 19.0503 18.9574 18.8211 17.7249L18.7618 17.4061C18.6967 17.0559 18.6641 16.8808 18.7007 16.7126C18.7373 16.5443 18.8389 16.4021 19.0422 16.1175L19.2272 15.8585C19.9424 14.8572 20.2999 14.3565 20.1218 13.9217C19.9437 13.4868 19.3478 13.4057 18.1561 13.2436L17.8478 13.2016C17.5091 13.1555 17.3398 13.1325 17.1976 13.0429C17.0555 12.9534 16.9565 12.8075 16.7587 12.5157L16.5786 12.25C15.8823 11.2231 15.5342 10.7097 15.0844 10.749C14.6345 10.7884 14.3808 11.3545 13.8735 12.4867Z" fill="white"/>
</svg>
