<svg width="31" height="31" viewBox="0 0 31 31" fill="none" xmlns="http://www.w3.org/2000/svg">
<path fill-rule="evenodd" clip-rule="evenodd" d="M14.4608 27.3775C21.0206 27.9514 26.8036 23.0989 27.3775 16.5392C27.9514 9.97939 23.0989 4.1964 16.5391 3.6225C9.97933 3.04859 4.19634 7.9011 3.62243 14.4609C3.04853 21.0206 7.90103 26.8036 14.4608 27.3775ZM14.4214 12.25L14.2413 12.5157C14.0434 12.8075 13.9445 12.9534 13.8023 13.0429C13.6602 13.1325 13.4908 13.1555 13.1522 13.2016L12.8439 13.2436C11.6522 13.4057 11.0563 13.4868 10.8782 13.9217C10.7 14.3565 11.0576 14.8572 11.7728 15.8585L11.9578 16.1175C12.161 16.4021 12.2626 16.5444 12.2992 16.7126C12.3358 16.8808 12.3033 17.0559 12.2381 17.4061L12.1789 17.7249C11.9497 18.9574 11.8351 19.5736 12.1748 19.8817C12.5146 20.1898 13.0837 19.9858 14.2219 19.5777L14.5164 19.4722C14.8399 19.3562 15.0016 19.2982 15.1664 19.3126C15.3312 19.3271 15.4804 19.4122 15.7788 19.5826L16.0505 19.7377C17.1005 20.3372 17.6256 20.637 18.0137 20.3925C18.4018 20.1481 18.3959 19.5213 18.3842 18.2678L18.3812 17.9435C18.3779 17.5873 18.3762 17.4092 18.4415 17.2499C18.5067 17.0906 18.6315 16.9682 18.8811 16.7232L19.1083 16.5003C19.9864 15.6384 20.4255 15.2074 20.3256 14.7482C20.2257 14.289 19.653 14.1057 18.5075 13.7391L18.2112 13.6442C17.8857 13.54 17.7229 13.4879 17.5984 13.3751C17.474 13.2622 17.4019 13.1013 17.2577 12.7796L17.1265 12.4867C16.6191 11.3545 16.3655 10.7884 15.9156 10.749C15.4658 10.7097 15.1176 11.2231 14.4214 12.25Z" fill="white"/>
</svg>
