<svg width="28" height="28" viewBox="0 0 28 28" fill="none" xmlns="http://www.w3.org/2000/svg">
<g clip-path="url(#clip0_1_738)">
<path fill-rule="evenodd" clip-rule="evenodd" d="M15.7488 23.9179C21.2263 22.952 24.8837 17.7287 23.9179 12.2512C22.9521 6.7737 17.7287 3.11627 12.2512 4.0821C6.77372 5.04793 3.11629 10.2713 4.08212 15.7488C5.04795 21.2263 10.2713 24.8837 15.7488 23.9179ZM12.4095 11.5841L12.3206 11.8403C12.223 12.1216 12.1742 12.2623 12.0778 12.3664C11.9814 12.4705 11.8482 12.5264 11.582 12.638L11.3396 12.7396C10.4028 13.1325 9.93435 13.3289 9.88409 13.7226C9.83383 14.1164 10.235 14.4467 11.0374 15.1073L11.245 15.2782C11.473 15.4659 11.587 15.5598 11.6537 15.689C11.7203 15.8182 11.732 15.9682 11.7554 16.2682L11.7768 16.5413C11.8592 17.5969 11.9004 18.1247 12.245 18.3019C12.5896 18.479 13.0093 18.1881 13.8487 17.6063L14.0659 17.4558C14.3045 17.2905 14.4238 17.2078 14.5614 17.1836C14.699 17.1593 14.8393 17.1962 15.12 17.2699L15.3756 17.3371C16.3634 17.5967 16.8573 17.7265 17.1205 17.4422C17.3837 17.1579 17.2419 16.6478 16.9583 15.6277L16.885 15.3637C16.8044 15.0738 16.7641 14.9289 16.7825 14.7847C16.8009 14.6404 16.876 14.5132 17.026 14.2588L17.1626 14.0272C17.6907 13.132 17.9547 12.6844 17.7728 12.3316C17.5909 11.9788 17.0836 11.9545 16.0689 11.9057L15.8063 11.8931C15.518 11.8793 15.3738 11.8724 15.2476 11.8075C15.1214 11.7426 15.0274 11.6271 14.8394 11.3961L14.6683 11.1858C14.0068 10.373 13.6761 9.9666 13.3005 10.0328C12.9249 10.0991 12.7531 10.5941 12.4095 11.5841Z" fill="white"/>
</g>
<defs>
<clipPath id="clip0_1_738">
<rect width="24" height="24" fill="white" transform="translate(0 4.19708) scale(1.00709) rotate(-10)"/>
</clipPath>
</defs>
</svg>
