<svg width="20" height="20" viewBox="0 0 20 20" fill="none" xmlns="http://www.w3.org/2000/svg">
<path fill-rule="evenodd" clip-rule="evenodd" d="M14.8495 16.4172C14.7751 15.5053 15.5298 14.7441 16.4337 14.8192C16.5905 14.8322 16.7781 14.8892 16.9692 14.9473C16.9876 14.9529 17.0061 14.9585 17.0245 14.9641C17.0412 14.9691 17.0578 14.9741 17.0745 14.9791C17.2501 15.0319 17.4248 15.0844 17.5576 15.1562C18.3204 15.5682 18.5666 16.5526 18.0889 17.2802C18.0057 17.407 17.8766 17.5368 17.7468 17.6673C17.7345 17.6797 17.7222 17.6921 17.7099 17.7045C17.6976 17.7169 17.6853 17.7293 17.673 17.7417C17.5437 17.8726 17.415 18.0028 17.2893 18.0867C16.568 18.5686 15.5921 18.3203 15.1836 17.5509C15.1125 17.4169 15.0605 17.2407 15.0081 17.0635C15.0031 17.0467 14.9982 17.0299 14.9932 17.0131C14.9877 16.9945 14.9821 16.9759 14.9765 16.9573C14.919 16.7646 14.8624 16.5753 14.8495 16.4172Z" fill="white" fill-opacity="0.64"/>
<path d="M16.7731 9.28575C16.7731 13.4937 13.3914 16.9048 9.21989 16.9048C5.04836 16.9048 1.66666 13.4937 1.66666 9.28575C1.66666 5.07785 5.04836 1.66667 9.21989 1.66667C13.3914 1.66667 16.7731 5.07785 16.7731 9.28575Z" fill="white" fill-opacity="0.64"/>
</svg>
