<svg width="20" height="20" viewBox="0 0 20 20" fill="none" xmlns="http://www.w3.org/2000/svg">
<path fill-rule="evenodd" clip-rule="evenodd" d="M17.584 6.66961C17.5368 6.66663 17.4854 6.66665 17.4321 6.66667L17.4188 6.66667H15.3284C13.6053 6.66667 12.131 8.02297 12.131 9.79167C12.131 11.5604 13.6053 12.9167 15.3284 12.9167H17.4188L17.4321 12.9167C17.4854 12.9167 17.5368 12.9167 17.584 12.9137C18.2839 12.8695 18.9029 12.3218 18.9549 11.5568C18.9583 11.5067 18.9583 11.4526 18.9583 11.4025L18.9583 11.3889V8.19445L18.9583 8.18085C18.9583 8.13073 18.9583 8.07666 18.9549 8.0265C18.9029 7.26151 18.2839 6.71381 17.584 6.66961ZM15.143 10.625C15.5866 10.625 15.9462 10.2519 15.9462 9.79167C15.9462 9.33143 15.5866 8.95833 15.143 8.95833C14.6994 8.95833 14.3398 9.33143 14.3398 9.79167C14.3398 10.2519 14.6994 10.625 15.143 10.625Z" fill="#3E4654"/>
<path fill-rule="evenodd" clip-rule="evenodd" d="M17.4316 14.1667C17.5558 14.1635 17.6498 14.2785 17.6161 14.3982C17.4488 14.9919 17.1833 15.4979 16.7573 15.924C16.1336 16.5476 15.3428 16.8244 14.3658 16.9557C13.4165 17.0834 12.2034 17.0833 10.672 17.0833H8.91128C7.37982 17.0833 6.16679 17.0834 5.21744 16.9557C4.24042 16.8244 3.44963 16.5476 2.826 15.924C2.20236 15.3003 1.9256 14.5095 1.79424 13.5325C1.6666 12.5832 1.66661 11.3701 1.66663 9.83868V9.74465C1.66661 8.21319 1.6666 7.00016 1.79424 6.05082C1.9256 5.0738 2.20236 4.28301 2.826 3.65937C3.44963 3.03573 4.24042 2.75897 5.21744 2.62761C6.16679 2.49998 7.37981 2.49999 8.91128 2.5L10.672 2.5C12.2034 2.49999 13.4165 2.49998 14.3658 2.62761C15.3428 2.75897 16.1336 3.03573 16.7573 3.65937C17.1833 4.08544 17.4488 4.59145 17.6161 5.18515C17.6498 5.3048 17.5558 5.41989 17.4315 5.41667L15.3283 5.41667C12.9644 5.41667 10.8809 7.28409 10.8809 9.79167C10.8809 12.2993 12.9644 14.1667 15.3283 14.1667L17.4316 14.1667ZM4.79163 5.83333C4.44645 5.83333 4.16663 6.11316 4.16663 6.45833C4.16663 6.80351 4.44645 7.08333 4.79163 7.08333H8.12496C8.47014 7.08333 8.74996 6.80351 8.74996 6.45833C8.74996 6.11316 8.47014 5.83333 8.12496 5.83333H4.79163Z" fill="#3E4654"/>
</svg>
