<svg width="478" height="38" viewBox="0 0 478 38" fill="none" xmlns="http://www.w3.org/2000/svg">
<path d="M5.71874 18.9342H22.4905V24.2204H5.71874V18.9342ZM6.24736 37.0996H6.80293e-06V3.45998H24.5569V8.69814H6.24736V37.0996ZM41.3801 37.436C38.5287 37.436 36.0298 36.8753 33.8832 35.754C31.7688 34.6006 30.1188 33.0308 28.9334 31.0444C27.7801 29.0581 27.2034 26.7994 27.2034 24.2685C27.2034 21.7054 27.764 19.4468 28.8854 17.4925C30.0387 15.5061 31.6086 13.9523 33.5949 12.831C35.6133 11.7097 37.904 11.149 40.467 11.149C42.9659 11.149 45.1925 11.6937 47.1468 12.7829C49.1011 13.8722 50.639 15.41 51.7603 17.3964C52.8816 19.3827 53.4423 21.7215 53.4423 24.4126C53.4423 24.6689 53.4262 24.9573 53.3942 25.2776C53.3942 25.598 53.3782 25.9024 53.3461 26.1907H31.961V22.202H50.1744L47.8196 23.4515C47.8517 21.9778 47.5473 20.6802 46.9066 19.5589C46.2658 18.4376 45.3848 17.5566 44.2635 16.9158C43.1742 16.2751 41.9087 15.9547 40.467 15.9547C38.9933 15.9547 37.6957 16.2751 36.5744 16.9158C35.4851 17.5566 34.6201 18.4536 33.9794 19.607C33.3706 20.7283 33.0663 22.0579 33.0663 23.5957V24.5568C33.0663 26.0946 33.4187 27.4562 34.1235 28.6416C34.8284 29.827 35.8215 30.7401 37.103 31.3808C38.3845 32.0216 39.8583 32.342 41.5242 32.342C42.9659 32.342 44.2635 32.1177 45.4168 31.6692C46.5702 31.2206 47.5954 30.5158 48.4924 29.5547L51.7122 33.255C50.5589 34.6006 49.1011 35.6418 47.3391 36.3787C45.609 37.0835 43.6227 37.436 41.3801 37.436ZM74.3191 37.0996V31.9094L73.9827 30.8041V21.7215C73.9827 19.9594 73.454 18.5978 72.3968 17.6367C71.3396 16.6435 69.7377 16.1469 67.5912 16.1469C66.1495 16.1469 64.7238 16.3712 63.3141 16.8197C61.9365 17.2682 60.7671 17.893 59.806 18.6939L57.4512 14.3208C58.8288 13.2635 60.4628 12.4786 62.353 11.966C64.2752 11.4213 66.2616 11.149 68.312 11.149C72.0284 11.149 74.8957 12.0461 76.9141 13.8402C78.9645 15.6023 79.9897 18.3415 79.9897 22.0579V37.0996H74.3191ZM66.2456 37.436C64.3233 37.436 62.6413 37.1156 61.1996 36.4748C59.7579 35.802 58.6366 34.889 57.8357 33.7356C57.0668 32.5502 56.6823 31.2206 56.6823 29.7469C56.6823 28.3052 57.0187 27.0077 57.6915 25.8543C58.3963 24.701 59.5337 23.7879 61.1035 23.1151C62.6734 22.4423 64.7558 22.1059 67.3509 22.1059H74.7996V26.0946H67.7834C65.733 26.0946 64.3553 26.431 63.6505 27.1038C62.9457 27.7445 62.5933 28.5455 62.5933 29.5066C62.5933 30.5959 63.0258 31.4609 63.8908 32.1017C64.7558 32.7424 65.9572 33.0628 67.495 33.0628C68.9688 33.0628 70.2823 32.7264 71.4357 32.0536C72.6211 31.3808 73.4701 30.3877 73.9827 29.0741L74.9919 32.6784C74.4152 34.1841 73.374 35.3535 71.8682 36.1865C70.3944 37.0195 68.5202 37.436 66.2456 37.436ZM97.3584 37.436C94.5391 37.436 92.3605 36.7151 90.8227 35.2734C89.2849 33.7997 88.516 31.6371 88.516 28.7858V5.76669H94.5231V28.6416C94.5231 29.859 94.8274 30.8041 95.4362 31.4769C96.0769 32.1497 96.9579 32.4861 98.0793 32.4861C99.4249 32.4861 100.546 32.1337 101.443 31.4289L103.125 35.7059C102.42 36.2826 101.555 36.7151 100.53 37.0034C99.5049 37.2918 98.4477 37.436 97.3584 37.436ZM84.287 16.4352V11.6296H101.395V16.4352H84.287ZM118.928 37.436C116.749 37.436 114.827 37.0355 113.161 36.2345C111.495 35.4016 110.197 34.1521 109.268 32.4861C108.339 30.7881 107.875 28.6576 107.875 26.0946V11.4374H113.882V25.2776C113.882 27.5844 114.394 29.3144 115.419 30.4678C116.477 31.5891 117.966 32.1497 119.889 32.1497C121.298 32.1497 122.516 31.8614 123.541 31.2847C124.598 30.708 125.415 29.843 125.992 28.6897C126.601 27.5363 126.905 26.1106 126.905 24.4126V11.4374H132.912V37.0996H127.193V30.1794L128.202 32.2939C127.337 33.9599 126.072 35.2414 124.406 36.1384C122.74 37.0034 120.914 37.436 118.928 37.436ZM140.777 37.0996V11.4374H146.496V18.5017L145.823 16.4352C146.592 14.7052 147.793 13.3917 149.427 12.4946C151.093 11.5976 153.16 11.149 155.627 11.149V16.8678C155.37 16.8037 155.13 16.7716 154.906 16.7716C154.681 16.7396 154.457 16.7236 154.233 16.7236C151.958 16.7236 150.148 17.3964 148.803 18.742C147.457 20.0555 146.784 22.0258 146.784 24.6529V37.0996H140.777ZM172.55 37.436C169.699 37.436 167.2 36.8753 165.053 35.754C162.939 34.6006 161.289 33.0308 160.103 31.0444C158.95 29.0581 158.373 26.7994 158.373 24.2685C158.373 21.7054 158.934 19.4468 160.055 17.4925C161.209 15.5061 162.779 13.9523 164.765 12.831C166.783 11.7097 169.074 11.149 171.637 11.149C174.136 11.149 176.362 11.6937 178.317 12.7829C180.271 13.8722 181.809 15.41 182.93 17.3964C184.052 19.3827 184.612 21.7215 184.612 24.4126C184.612 24.6689 184.596 24.9573 184.564 25.2776C184.564 25.598 184.548 25.9024 184.516 26.1907H163.131V22.202H181.344L178.99 23.4515C179.022 21.9778 178.717 20.6802 178.077 19.5589C177.436 18.4376 176.555 17.5566 175.433 16.9158C174.344 16.2751 173.079 15.9547 171.637 15.9547C170.163 15.9547 168.866 16.2751 167.744 16.9158C166.655 17.5566 165.79 18.4536 165.149 19.607C164.541 20.7283 164.236 22.0579 164.236 23.5957V24.5568C164.236 26.0946 164.589 27.4562 165.293 28.6416C165.998 29.827 166.991 30.7401 168.273 31.3808C169.554 32.0216 171.028 32.342 172.694 32.342C174.136 32.342 175.433 32.1177 176.587 31.6692C177.74 31.2206 178.765 30.5158 179.662 29.5547L182.882 33.255C181.729 34.6006 180.271 35.6418 178.509 36.3787C176.779 37.0835 174.793 37.436 172.55 37.436ZM201.243 37.436C198.776 37.436 196.55 36.8913 194.563 35.802C192.609 34.6807 191.071 33.1429 189.95 31.1886C188.829 29.2343 188.268 26.9276 188.268 24.2685C188.268 21.6093 188.829 19.3026 189.95 17.3483C191.071 15.394 192.609 13.8722 194.563 12.7829C196.55 11.6937 198.776 11.149 201.243 11.149C203.39 11.149 205.312 11.6296 207.01 12.5907C208.708 13.5198 210.054 14.9455 211.047 16.8678C212.04 18.79 212.536 21.2569 212.536 24.2685C212.536 27.248 212.056 29.7149 211.095 31.6692C210.134 33.5914 208.804 35.0331 207.106 35.9943C205.408 36.9554 203.454 37.436 201.243 37.436ZM201.964 32.2939C203.406 32.2939 204.687 31.9735 205.809 31.3328C206.962 30.692 207.875 29.7629 208.548 28.5455C209.253 27.3281 209.605 25.9024 209.605 24.2685C209.605 22.6025 209.253 21.1768 208.548 19.9914C207.875 18.774 206.962 17.8449 205.809 17.2041C204.687 16.5634 203.406 16.243 201.964 16.243C200.522 16.243 199.225 16.5634 198.071 17.2041C196.95 17.8449 196.037 18.774 195.332 19.9914C194.659 21.1768 194.323 22.6025 194.323 24.2685C194.323 25.9024 194.659 27.3281 195.332 28.5455C196.037 29.7629 196.95 30.692 198.071 31.3328C199.225 31.9735 200.522 32.2939 201.964 32.2939ZM209.749 37.0996V31.0444L209.989 24.2204L209.509 17.3964V1.4416H215.468V37.0996H209.749Z" fill="white"/>
<path d="M252.803 37.5801C250.24 37.5801 247.853 37.1636 245.642 36.3306C243.464 35.4656 241.557 34.2642 239.923 32.7264C238.322 31.1566 237.072 29.3144 236.175 27.1999C235.278 25.0854 234.829 22.7787 234.829 20.2798C234.829 17.7808 235.278 15.4741 236.175 13.3596C237.072 11.2451 238.338 9.41899 239.971 7.88118C241.605 6.31133 243.512 5.10992 245.69 4.27694C247.869 3.41192 250.256 2.97941 252.851 2.97941C255.606 2.97941 258.121 3.45998 260.395 4.42111C262.67 5.3502 264.592 6.74384 266.162 8.60203L262.126 12.3985C260.908 11.0849 259.546 10.1078 258.041 9.46704C256.535 8.79425 254.901 8.45786 253.139 8.45786C251.377 8.45786 249.759 8.7462 248.285 9.32288C246.844 9.89955 245.578 10.7165 244.489 11.7738C243.432 12.831 242.599 14.0805 241.99 15.5222C241.413 16.9639 241.125 18.5497 241.125 20.2798C241.125 22.0098 241.413 23.5957 241.99 25.0374C242.599 26.4791 243.432 27.7285 244.489 28.7858C245.578 29.843 246.844 30.66 248.285 31.2367C249.759 31.8133 251.377 32.1017 253.139 32.1017C254.901 32.1017 256.535 31.7813 258.041 31.1405C259.546 30.4678 260.908 29.4586 262.126 28.113L266.162 31.9575C264.592 33.7837 262.67 35.1773 260.395 36.1384C258.121 37.0996 255.59 37.5801 252.803 37.5801ZM282.12 37.436C279.493 37.436 277.154 36.8753 275.103 35.754C273.053 34.6006 271.435 33.0308 270.25 31.0444C269.064 29.0581 268.472 26.7994 268.472 24.2685C268.472 21.7054 269.064 19.4468 270.25 17.4925C271.435 15.5061 273.053 13.9523 275.103 12.831C277.154 11.7097 279.493 11.149 282.12 11.149C284.779 11.149 287.134 11.7097 289.184 12.831C291.266 13.9523 292.884 15.4901 294.038 17.4444C295.223 19.3987 295.816 21.6734 295.816 24.2685C295.816 26.7994 295.223 29.0581 294.038 31.0444C292.884 33.0308 291.266 34.6006 289.184 35.754C287.134 36.8753 284.779 37.436 282.12 37.436ZM282.12 32.2939C283.593 32.2939 284.907 31.9735 286.06 31.3328C287.214 30.692 288.111 29.7629 288.751 28.5455C289.424 27.3281 289.761 25.9024 289.761 24.2685C289.761 22.6025 289.424 21.1768 288.751 19.9914C288.111 18.774 287.214 17.8449 286.06 17.2041C284.907 16.5634 283.609 16.243 282.168 16.243C280.694 16.243 279.38 16.5634 278.227 17.2041C277.106 17.8449 276.209 18.774 275.536 19.9914C274.863 21.1768 274.527 22.6025 274.527 24.2685C274.527 25.9024 274.863 27.3281 275.536 28.5455C276.209 29.7629 277.106 30.692 278.227 31.3328C279.38 31.9735 280.678 32.2939 282.12 32.2939ZM301.56 37.0996V1.4416H307.567V37.0996H301.56ZM315.451 37.0996V1.4416H321.458V37.0996H315.451ZM341.405 37.436C338.554 37.436 336.055 36.8753 333.908 35.754C331.794 34.6006 330.144 33.0308 328.958 31.0444C327.805 29.0581 327.228 26.7994 327.228 24.2685C327.228 21.7054 327.789 19.4468 328.91 17.4925C330.064 15.5061 331.633 13.9523 333.62 12.831C335.638 11.7097 337.929 11.149 340.492 11.149C342.991 11.149 345.217 11.6937 347.172 12.7829C349.126 13.8722 350.664 15.41 351.785 17.3964C352.906 19.3827 353.467 21.7215 353.467 24.4126C353.467 24.6689 353.451 24.9573 353.419 25.2776C353.419 25.598 353.403 25.9024 353.371 26.1907H331.986V22.202H350.199L347.844 23.4515C347.877 21.9778 347.572 20.6802 346.931 19.5589C346.291 18.4376 345.41 17.5566 344.288 16.9158C343.199 16.2751 341.934 15.9547 340.492 15.9547C339.018 15.9547 337.721 16.2751 336.599 16.9158C335.51 17.5566 334.645 18.4536 334.004 19.607C333.395 20.7283 333.091 22.0579 333.091 23.5957V24.5568C333.091 26.0946 333.444 27.4562 334.148 28.6416C334.853 29.827 335.846 30.7401 337.128 31.3808C338.409 32.0216 339.883 32.342 341.549 32.342C342.991 32.342 344.288 32.1177 345.442 31.6692C346.595 31.2206 347.62 30.5158 348.517 29.5547L351.737 33.255C350.584 34.6006 349.126 35.6418 347.364 36.3787C345.634 37.0835 343.648 37.436 341.405 37.436ZM371.011 37.436C368.32 37.436 365.917 36.8753 363.803 35.754C361.72 34.6006 360.086 33.0308 358.901 31.0444C357.715 29.0581 357.123 26.7994 357.123 24.2685C357.123 21.7054 357.715 19.4468 358.901 17.4925C360.086 15.5061 361.72 13.9523 363.803 12.831C365.917 11.7097 368.32 11.149 371.011 11.149C373.51 11.149 375.705 11.6616 377.595 12.6868C379.517 13.68 380.975 15.1537 381.968 17.108L377.355 19.7992C376.586 18.5818 375.641 17.6847 374.519 17.108C373.43 16.5314 372.245 16.243 370.963 16.243C369.489 16.243 368.16 16.5634 366.974 17.2041C365.789 17.8449 364.86 18.774 364.187 19.9914C363.514 21.1768 363.178 22.6025 363.178 24.2685C363.178 25.9344 363.514 27.3761 364.187 28.5935C364.86 29.7789 365.789 30.692 366.974 31.3328C368.16 31.9735 369.489 32.2939 370.963 32.2939C372.245 32.2939 373.43 32.0056 374.519 31.4289C375.641 30.8522 376.586 29.9551 377.355 28.7377L381.968 31.4289C380.975 33.3511 379.517 34.8409 377.595 35.8981C375.705 36.9233 373.51 37.436 371.011 37.436ZM397.149 37.436C394.329 37.436 392.151 36.7151 390.613 35.2734C389.075 33.7997 388.306 31.6371 388.306 28.7858V5.76669H394.313V28.6416C394.313 29.859 394.618 30.8041 395.226 31.4769C395.867 32.1497 396.748 32.4861 397.869 32.4861C399.215 32.4861 400.336 32.1337 401.233 31.4289L402.915 35.7059C402.211 36.2826 401.346 36.7151 400.32 37.0034C399.295 37.2918 398.238 37.436 397.149 37.436ZM384.077 16.4352V11.6296H401.185V16.4352H384.077ZM407.857 37.0996V11.4374H413.864V37.0996H407.857ZM410.885 7.20839C409.763 7.20839 408.834 6.85597 408.097 6.15114C407.392 5.44631 407.04 4.59732 407.04 3.60415C407.04 2.57894 407.392 1.72994 408.097 1.05715C408.834 0.352321 409.763 -9.26154e-05 410.885 -9.26154e-05C412.006 -9.26154e-05 412.919 0.336303 413.624 1.00909C414.361 1.64985 414.729 2.46681 414.729 3.45998C414.729 4.51722 414.377 5.41428 413.672 6.15114C412.967 6.85597 412.038 7.20839 410.885 7.20839ZM433.282 37.436C430.655 37.436 428.316 36.8753 426.266 35.754C424.215 34.6006 422.597 33.0308 421.412 31.0444C420.227 29.0581 419.634 26.7994 419.634 24.2685C419.634 21.7054 420.227 19.4468 421.412 17.4925C422.597 15.5061 424.215 13.9523 426.266 12.831C428.316 11.7097 430.655 11.149 433.282 11.149C435.941 11.149 438.296 11.7097 440.346 12.831C442.429 13.9523 444.047 15.4901 445.2 17.4444C446.385 19.3987 446.978 21.6734 446.978 24.2685C446.978 26.7994 446.385 29.0581 445.2 31.0444C444.047 33.0308 442.429 34.6006 440.346 35.754C438.296 36.8753 435.941 37.436 433.282 37.436ZM433.282 32.2939C434.756 32.2939 436.069 31.9735 437.223 31.3328C438.376 30.692 439.273 29.7629 439.914 28.5455C440.586 27.3281 440.923 25.9024 440.923 24.2685C440.923 22.6025 440.586 21.1768 439.914 19.9914C439.273 18.774 438.376 17.8449 437.223 17.2041C436.069 16.5634 434.772 16.243 433.33 16.243C431.856 16.243 430.543 16.5634 429.389 17.2041C428.268 17.8449 427.371 18.774 426.698 19.9914C426.025 21.1768 425.689 22.6025 425.689 24.2685C425.689 25.9024 426.025 27.3281 426.698 28.5455C427.371 29.7629 428.268 30.692 429.389 31.3328C430.543 31.9735 431.84 32.2939 433.282 32.2939ZM467.283 11.149C469.334 11.149 471.16 11.5495 472.762 12.3504C474.396 13.1514 475.677 14.3848 476.606 16.0508C477.535 17.6847 478 19.7992 478 22.3943V37.0996H471.993V23.1632C471.993 20.8885 471.448 19.1905 470.359 18.0692C469.302 16.9478 467.812 16.3872 465.89 16.3872C464.48 16.3872 463.231 16.6755 462.141 17.2522C461.052 17.8289 460.203 18.6939 459.594 19.8473C459.018 20.9686 458.729 22.3943 458.729 24.1243V37.0996H452.722V11.4374H458.441V18.3575L457.432 16.243C458.329 14.6091 459.626 13.3596 461.324 12.4946C463.054 11.5976 465.041 11.149 467.283 11.149Z" fill="url(#paint0_linear_1_983)"/>
<defs>
<linearGradient id="paint0_linear_1_983" x1="-4.70503" y1="-11.9582" x2="4.08894" y2="92.3843" gradientUnits="userSpaceOnUse">
<stop stop-color="#15C0EA"/>
<stop offset="1" stop-color="#507EDF"/>
</linearGradient>
</defs>
</svg>
