<svg width="338" height="38" viewBox="0 0 338 38" fill="none" xmlns="http://www.w3.org/2000/svg">
<path d="M23.651 3.46115H29.9002V37.1109H23.651V3.46115ZM6.24922 37.1109H-2.37578e-05V3.46115H6.24922V37.1109ZM24.1317 22.6896H5.72044V17.3537H24.1317V22.6896ZM49.8771 37.4474C47.2492 37.4474 44.9098 36.8866 42.8588 35.7649C40.8077 34.6112 39.1893 33.0409 38.0036 31.054C36.8178 29.067 36.2249 26.8077 36.2249 24.2759C36.2249 21.7121 36.8178 19.4528 38.0036 17.4979C39.1893 15.511 40.8077 13.9567 42.8588 12.835C44.9098 11.7134 47.2492 11.1525 49.8771 11.1525C52.5371 11.1525 54.8926 11.7134 56.9436 12.835C59.0267 13.9567 60.6451 15.495 61.7988 17.4498C62.9845 19.4047 63.5774 21.6801 63.5774 24.2759C63.5774 26.8077 62.9845 29.067 61.7988 31.054C60.6451 33.0409 59.0267 34.6112 56.9436 35.7649C54.8926 36.8866 52.5371 37.4474 49.8771 37.4474ZM49.8771 32.3038C51.3513 32.3038 52.6653 31.9833 53.819 31.3424C54.9727 30.7014 55.87 29.7721 56.5109 28.5543C57.1839 27.3365 57.5204 25.9104 57.5204 24.2759C57.5204 22.6095 57.1839 21.1834 56.5109 19.9976C55.87 18.7798 54.9727 17.8504 53.819 17.2095C52.6653 16.5685 51.3673 16.2481 49.9252 16.2481C48.451 16.2481 47.1371 16.5685 45.9834 17.2095C44.8617 17.8504 43.9644 18.7798 43.2914 19.9976C42.6184 21.1834 42.2819 22.6095 42.2819 24.2759C42.2819 25.9104 42.6184 27.3365 43.2914 28.5543C43.9644 29.7721 44.8617 30.7014 45.9834 31.3424C47.1371 31.9833 48.435 32.3038 49.8771 32.3038ZM74.2916 37.1109L64.8697 11.441H70.5421L78.618 34.0824H75.926L84.3866 11.441H89.434L97.6542 34.0824H95.0103L103.327 11.441H108.662L99.1925 37.1109H93.4239L85.9248 17.0653H87.7035L80.0602 37.1109H74.2916ZM126.079 37.1109V11.441H132.088V37.1109H126.079ZM129.108 7.2107C127.986 7.2107 127.057 6.85817 126.32 6.15313C125.615 5.44809 125.262 4.59883 125.262 3.60536C125.262 2.57985 125.615 1.73059 126.32 1.05759C127.057 0.35255 127.986 2.96077e-05 129.108 2.96077e-05C130.229 2.96077e-05 131.143 0.336527 131.848 1.00952C132.585 1.65047 132.953 2.46768 132.953 3.46115C132.953 4.51871 132.601 5.41604 131.896 6.15313C131.191 6.85817 130.261 7.2107 129.108 7.2107ZM149.637 37.4474C146.817 37.4474 144.638 36.7264 143.099 35.2842C141.561 33.81 140.792 31.6468 140.792 28.7946V5.76856H146.801V28.6504C146.801 29.8682 147.105 30.8136 147.714 31.4866C148.355 32.1596 149.236 32.4961 150.358 32.4961C151.704 32.4961 152.826 32.1436 153.723 31.4385L155.406 35.7169C154.701 36.2937 153.835 36.7264 152.81 37.0148C151.784 37.3032 150.727 37.4474 149.637 37.4474ZM136.562 16.4403V11.6332H153.675V16.4403H136.562Z" fill="white"/>
<path d="M182.143 37.1109L170.99 3.46115H177.48L187.43 33.8902H184.21L194.545 3.46115H200.313L210.36 33.8902H207.236L217.427 3.46115H223.388L212.235 37.1109H205.601L196.42 9.66232H198.15L188.824 37.1109H182.143ZM237.514 37.4474C234.886 37.4474 232.547 36.8866 230.496 35.7649C228.445 34.6112 226.826 33.0409 225.641 31.054C224.455 29.067 223.862 26.8077 223.862 24.2759C223.862 21.7121 224.455 19.4528 225.641 17.4979C226.826 15.511 228.445 13.9567 230.496 12.835C232.547 11.7134 234.886 11.1525 237.514 11.1525C240.174 11.1525 242.529 11.7134 244.581 12.835C246.664 13.9567 248.282 15.495 249.436 17.4498C250.621 19.4047 251.214 21.6801 251.214 24.2759C251.214 26.8077 250.621 29.067 249.436 31.054C248.282 33.0409 246.664 34.6112 244.581 35.7649C242.529 36.8866 240.174 37.4474 237.514 37.4474ZM237.514 32.3038C238.988 32.3038 240.302 31.9833 241.456 31.3424C242.61 30.7014 243.507 29.7721 244.148 28.5543C244.821 27.3365 245.157 25.9104 245.157 24.2759C245.157 22.6095 244.821 21.1834 244.148 19.9976C243.507 18.7798 242.61 17.8504 241.456 17.2095C240.302 16.5685 239.004 16.2481 237.562 16.2481C236.088 16.2481 234.774 16.5685 233.62 17.2095C232.499 17.8504 231.601 18.7798 230.928 19.9976C230.255 21.1834 229.919 22.6095 229.919 24.2759C229.919 25.9104 230.255 27.3365 230.928 28.5543C231.601 29.7721 232.499 30.7014 233.62 31.3424C234.774 31.9833 236.072 32.3038 237.514 32.3038ZM256.96 37.1109V11.441H262.681V18.5074L262.008 16.4403C262.777 14.7098 263.979 13.3958 265.613 12.4985C267.28 11.6012 269.347 11.1525 271.814 11.1525V16.873C271.558 16.8089 271.318 16.7768 271.093 16.7768C270.869 16.7448 270.645 16.7288 270.42 16.7288C268.145 16.7288 266.334 17.4018 264.988 18.7478C263.642 20.0617 262.969 22.0326 262.969 24.6605V37.1109H256.96ZM281.815 31.3905L281.959 23.8433L295.371 11.441H302.582L291.189 22.8819L288.016 25.5258L281.815 31.3905ZM276.912 37.1109V1.44216H282.921V37.1109H276.912ZM296.284 37.1109L286.911 25.5258L290.708 20.7187L303.591 37.1109H296.284ZM314.606 37.4474C312.459 37.4474 310.392 37.175 308.405 36.6302C306.45 36.0534 304.896 35.3643 303.742 34.5632L306.05 29.9964C307.203 30.7335 308.581 31.3424 310.184 31.8231C311.786 32.3038 313.388 32.5442 314.991 32.5442C316.882 32.5442 318.244 32.2878 319.077 31.775C319.942 31.2623 320.375 30.5733 320.375 29.708C320.375 29.0029 320.086 28.4742 319.509 28.1216C318.933 27.7371 318.18 27.4486 317.25 27.2563C316.321 27.0641 315.279 26.8878 314.126 26.7276C313.004 26.5673 311.866 26.359 310.712 26.1026C309.591 25.8142 308.565 25.4136 307.636 24.9009C306.707 24.3561 305.953 23.635 305.377 22.7377C304.8 21.8403 304.511 20.6546 304.511 19.1804C304.511 17.546 304.976 16.1359 305.905 14.9501C306.835 13.7323 308.133 12.803 309.799 12.162C311.498 11.489 313.501 11.1525 315.808 11.1525C317.539 11.1525 319.285 11.3448 321.048 11.7294C322.81 12.1139 324.269 12.6588 325.422 13.3638L323.115 17.9306C321.897 17.1935 320.663 16.6967 319.413 16.4403C318.196 16.1519 316.978 16.0077 315.76 16.0077C313.933 16.0077 312.571 16.2801 311.674 16.8249C310.809 17.3697 310.376 18.0587 310.376 18.892C310.376 19.6611 310.664 20.238 311.241 20.6225C311.818 21.0071 312.571 21.3116 313.501 21.5359C314.43 21.7602 315.456 21.9525 316.577 22.1127C317.731 22.2409 318.869 22.4492 319.99 22.7377C321.112 23.0261 322.137 23.4267 323.067 23.9394C324.028 24.4202 324.797 25.1092 325.374 26.0065C325.951 26.9038 326.239 28.0736 326.239 29.5157C326.239 31.1181 325.759 32.5121 324.797 33.6979C323.868 34.8836 322.538 35.813 320.807 36.486C319.077 37.127 317.01 37.4474 314.606 37.4474ZM331.799 25.9584L330.645 3.46115H337.76L336.558 25.9584H331.799ZM334.202 37.4474C333.081 37.4474 332.151 37.0789 331.414 36.3418C330.677 35.6047 330.309 34.7234 330.309 33.6979C330.309 32.6724 330.677 31.8071 331.414 31.102C332.151 30.3649 333.081 29.9964 334.202 29.9964C335.324 29.9964 336.237 30.3649 336.942 31.102C337.647 31.8071 338 32.6724 338 33.6979C338 34.7234 337.647 35.6047 336.942 36.3418C336.237 37.0789 335.324 37.4474 334.202 37.4474Z" fill="url(#paint0_linear_1_936)"/>
<defs>
<linearGradient id="paint0_linear_1_936" x1="-4.58913" y1="-11.9617" x2="7.71721" y2="91.6928" gradientUnits="userSpaceOnUse">
<stop stop-color="#15C0EA"/>
<stop offset="1" stop-color="#507EDF"/>
</linearGradient>
</defs>
</svg>
