<svg width="371" height="38" viewBox="0 0 371 38" fill="none" xmlns="http://www.w3.org/2000/svg">
<path d="M0.818019 37.1474V11.4521H6.83283V37.1474H0.818019ZM3.84948 7.21768C2.72672 7.21768 1.79643 6.86481 1.05861 6.15907C0.352874 5.45334 5.13865e-06 4.60324 5.13865e-06 3.60879C5.13865e-06 2.58227 0.352874 1.73217 1.05861 1.05851C1.79643 0.352775 2.72672 -9.27348e-05 3.84948 -9.27348e-05C4.97225 -9.27348e-05 5.8865 0.336736 6.59224 1.01039C7.33006 1.65198 7.69896 2.46999 7.69896 3.46444C7.69896 4.52304 7.34609 5.42126 6.64036 6.15907C5.93462 6.86481 5.00433 7.21768 3.84948 7.21768ZM15.3047 37.1474V3.46444H20.4534L41.5774 29.4003H39.0271V3.46444H45.2344V37.1474H40.0857L18.9617 11.2115H21.512V37.1474H15.3047ZM59.9861 18.9586H76.7794V24.2516H59.9861V18.9586ZM60.5154 37.1474H54.26V3.46444H78.8485V8.70935H60.5154V37.1474ZM91.9657 37.1474V8.75747H80.8022V3.46444H109.385V8.75747H98.2211V37.1474H91.9657Z" fill="white"/>
<path d="M141.861 37.6286C137.242 37.6286 133.617 36.3294 130.986 33.731C128.388 31.1326 127.089 27.3793 127.089 22.4712V3.46444H133.344V22.2307C133.344 25.6952 134.082 28.2134 135.558 29.7853C137.065 31.3571 139.183 32.1431 141.909 32.1431C144.636 32.1431 146.737 31.3571 148.213 29.7853C149.688 28.2134 150.426 25.6952 150.426 22.2307V3.46444H156.585V22.4712C156.585 27.3793 155.27 31.1326 152.64 33.731C150.041 36.3294 146.449 37.6286 141.861 37.6286ZM172.708 37.4842C170.559 37.4842 168.49 37.2115 166.501 36.6662C164.544 36.0888 162.988 35.3991 161.833 34.5971L164.143 30.0258C165.298 30.7637 166.677 31.3732 168.281 31.8543C169.885 32.3355 171.489 32.5761 173.093 32.5761C174.986 32.5761 176.349 32.3195 177.183 31.8062C178.049 31.293 178.482 30.6033 178.482 29.7371C178.482 29.0314 178.194 28.5021 177.616 28.1492C177.039 27.7643 176.285 27.4756 175.355 27.2831C174.424 27.0906 173.382 26.9142 172.227 26.7538C171.104 26.5934 169.965 26.3849 168.811 26.1282C167.688 25.8395 166.661 25.4385 165.731 24.9253C164.801 24.3799 164.047 23.6582 163.469 22.76C162.892 21.8617 162.603 20.6748 162.603 19.1992C162.603 17.5632 163.068 16.1517 163.999 14.9648C164.929 13.7458 166.228 12.8155 167.896 12.1739C169.597 11.5002 171.601 11.1634 173.911 11.1634C175.643 11.1634 177.392 11.3559 179.156 11.7408C180.92 12.1258 182.38 12.6711 183.535 13.3768L181.225 17.9481C180.006 17.2103 178.771 16.7131 177.52 16.4564C176.301 16.1677 175.082 16.0234 173.863 16.0234C172.035 16.0234 170.671 16.296 169.773 16.8414C168.907 17.3867 168.474 18.0764 168.474 18.9105C168.474 19.6804 168.762 20.2578 169.34 20.6427C169.917 21.0277 170.671 21.3324 171.601 21.557C172.532 21.7815 173.558 21.974 174.681 22.1344C175.836 22.2627 176.975 22.4712 178.097 22.76C179.22 23.0487 180.247 23.4497 181.177 23.9629C182.139 24.4441 182.909 25.1338 183.487 26.032C184.064 26.9302 184.353 28.1011 184.353 29.5447C184.353 31.1486 183.872 32.544 182.909 33.731C181.979 34.9179 180.648 35.8482 178.915 36.5218C177.183 37.1634 175.114 37.4842 172.708 37.4842ZM201.61 37.4842C198.755 37.4842 196.253 36.9228 194.104 35.8001C191.987 34.6452 190.335 33.0734 189.148 31.0845C187.993 29.0956 187.416 26.834 187.416 24.2997C187.416 21.7334 187.977 19.4719 189.1 17.515C190.255 15.5261 191.826 13.9703 193.815 12.8475C195.836 11.7248 198.13 11.1634 200.696 11.1634C203.198 11.1634 205.428 11.7087 207.385 12.7994C209.342 13.8901 210.881 15.4299 212.004 17.4188C213.127 19.4077 213.688 21.7495 213.688 24.4441C213.688 24.7007 213.672 24.9894 213.64 25.3102C213.64 25.631 213.624 25.9358 213.592 26.2245H192.179V22.2307H210.416L208.058 23.4817C208.09 22.0061 207.786 20.7069 207.144 19.5841C206.503 18.4614 205.62 17.5792 204.498 16.9376C203.407 16.296 202.14 15.9752 200.696 15.9752C199.221 15.9752 197.921 16.296 196.799 16.9376C195.708 17.5792 194.842 18.4774 194.2 19.6323C193.591 20.755 193.286 22.0863 193.286 23.6261V24.5885C193.286 26.1282 193.639 27.4916 194.345 28.6785C195.05 29.8655 196.045 30.7797 197.328 31.4213C198.611 32.0629 200.087 32.3837 201.755 32.3837C203.198 32.3837 204.498 32.1591 205.652 31.71C206.807 31.2609 207.834 30.5551 208.732 29.5928L211.956 33.2979C210.801 34.6452 209.342 35.6878 207.577 36.4256C205.845 37.1313 203.856 37.4842 201.61 37.4842ZM248.932 37.6286C246.366 37.6286 243.976 37.2115 241.762 36.3775C239.581 35.5114 237.672 34.3084 236.036 32.7686C234.432 31.1967 233.181 29.3522 232.283 27.235C231.385 25.1178 230.936 22.8081 230.936 20.3059C230.936 17.8037 231.385 15.4941 232.283 13.3768C233.181 11.2596 234.448 9.43113 236.084 7.89134C237.72 6.31947 239.629 5.11651 241.81 4.28245C243.992 3.41632 246.382 2.98325 248.98 2.98325C251.739 2.98325 254.257 3.46444 256.535 4.42681C258.812 5.3571 260.737 6.75253 262.309 8.61312L258.267 12.4145C257.048 11.0992 255.685 10.1208 254.177 9.47925C252.669 8.80559 251.033 8.46876 249.269 8.46876C247.504 8.46876 245.884 8.75747 244.409 9.33489C242.965 9.91232 241.698 10.7303 240.607 11.7889C239.549 12.8475 238.715 14.0986 238.105 15.5422C237.528 16.9857 237.239 18.5736 237.239 20.3059C237.239 22.0382 237.528 23.6261 238.105 25.0696C238.715 26.5132 239.549 27.7643 240.607 28.8229C241.698 29.8815 242.965 30.6995 244.409 31.2769C245.884 31.8543 247.504 32.1431 249.269 32.1431C251.033 32.1431 252.669 31.8223 254.177 31.1807C255.685 30.507 257.048 29.4965 258.267 28.1492L262.309 31.9987C260.737 33.8272 258.812 35.2226 256.535 36.185C254.257 37.1474 251.723 37.6286 248.932 37.6286ZM283.321 37.1474V31.9506L282.984 30.8439V21.7495C282.984 19.9851 282.455 18.6218 281.397 17.6594C280.338 16.6649 278.734 16.1677 276.585 16.1677C275.141 16.1677 273.714 16.3923 272.302 16.8414C270.923 17.2905 269.752 17.916 268.79 18.718L266.432 14.3392C267.811 13.2806 269.447 12.4947 271.34 11.9814C273.265 11.4361 275.253 11.1634 277.306 11.1634C281.028 11.1634 283.899 12.0616 285.92 13.858C287.973 15.6224 288.999 18.3651 288.999 22.0863V37.1474H283.321ZM275.237 37.4842C273.313 37.4842 271.629 37.1634 270.185 36.5218C268.741 35.8482 267.619 34.9339 266.817 33.7791C266.047 32.5922 265.662 31.2609 265.662 29.7853C265.662 28.3417 265.999 27.0425 266.672 25.8877C267.378 24.7328 268.517 23.8186 270.089 23.1449C271.661 22.4712 273.746 22.1344 276.344 22.1344H283.802V26.1282H276.777C274.724 26.1282 273.345 26.4651 272.639 27.1387C271.933 27.7803 271.58 28.5823 271.58 29.5447C271.58 30.6353 272.013 31.5015 272.88 32.1431C273.746 32.7846 274.949 33.1054 276.488 33.1054C277.964 33.1054 279.279 32.7686 280.434 32.0949C281.621 31.4213 282.471 30.4268 282.984 29.1116L283.995 32.7205C283.418 34.2282 282.375 35.3991 280.867 36.2331C279.392 37.0672 277.515 37.4842 275.237 37.4842ZM304.658 37.4842C302.509 37.4842 300.44 37.2115 298.451 36.6662C296.494 36.0888 294.938 35.3991 293.783 34.5971L296.093 30.0258C297.248 30.7637 298.627 31.3732 300.231 31.8543C301.835 32.3355 303.439 32.5761 305.043 32.5761C306.936 32.5761 308.299 32.3195 309.133 31.8062C309.999 31.293 310.432 30.6033 310.432 29.7371C310.432 29.0314 310.144 28.5021 309.566 28.1492C308.989 27.7643 308.235 27.4756 307.305 27.2831C306.374 27.0906 305.332 26.9142 304.177 26.7538C303.054 26.5934 301.915 26.3849 300.76 26.1282C299.638 25.8395 298.611 25.4385 297.681 24.9253C296.751 24.3799 295.997 23.6582 295.419 22.76C294.842 21.8617 294.553 20.6748 294.553 19.1992C294.553 17.5632 295.018 16.1517 295.949 14.9648C296.879 13.7458 298.178 12.8155 299.846 12.1739C301.546 11.5002 303.551 11.1634 305.861 11.1634C307.593 11.1634 309.342 11.3559 311.106 11.7408C312.87 12.1258 314.33 12.6711 315.485 13.3768L313.175 17.9481C311.956 17.2103 310.721 16.7131 309.47 16.4564C308.251 16.1677 307.032 16.0234 305.813 16.0234C303.984 16.0234 302.621 16.296 301.723 16.8414C300.857 17.3867 300.424 18.0764 300.424 18.9105C300.424 19.6804 300.712 20.2578 301.29 20.6427C301.867 21.0277 302.621 21.3324 303.551 21.557C304.482 21.7815 305.508 21.974 306.631 22.1344C307.786 22.2627 308.925 22.4712 310.047 22.76C311.17 23.0487 312.197 23.4497 313.127 23.9629C314.089 24.4441 314.859 25.1338 315.437 26.032C316.014 26.9302 316.303 28.1011 316.303 29.5447C316.303 31.1486 315.822 32.544 314.859 33.731C313.929 34.9179 312.598 35.8482 310.865 36.5218C309.133 37.1634 307.064 37.4842 304.658 37.4842ZM333.56 37.4842C330.705 37.4842 328.203 36.9228 326.054 35.8001C323.937 34.6452 322.285 33.0734 321.098 31.0845C319.943 29.0956 319.365 26.834 319.365 24.2997C319.365 21.7334 319.927 19.4719 321.05 17.515C322.204 15.5261 323.776 13.9703 325.765 12.8475C327.786 11.7248 330.08 11.1634 332.646 11.1634C335.148 11.1634 337.378 11.7087 339.335 12.7994C341.291 13.8901 342.831 15.4299 343.954 17.4188C345.077 19.4077 345.638 21.7495 345.638 24.4441C345.638 24.7007 345.622 24.9894 345.59 25.3102C345.59 25.631 345.574 25.9358 345.542 26.2245H324.129V22.2307H342.366L340.008 23.4817C340.04 22.0061 339.736 20.7069 339.094 19.5841C338.452 18.4614 337.57 17.5792 336.447 16.9376C335.357 16.296 334.09 15.9752 332.646 15.9752C331.171 15.9752 329.871 16.296 328.749 16.9376C327.658 17.5792 326.792 18.4774 326.15 19.6323C325.541 20.755 325.236 22.0863 325.236 23.6261V24.5885C325.236 26.1282 325.589 27.4916 326.294 28.6785C327 29.8655 327.995 30.7797 329.278 31.4213C330.561 32.0629 332.037 32.3837 333.705 32.3837C335.148 32.3837 336.447 32.1591 337.602 31.71C338.757 31.2609 339.784 30.5551 340.682 29.5928L343.906 33.2979C342.751 34.6452 341.291 35.6878 339.527 36.4256C337.795 37.1313 335.806 37.4842 333.56 37.4842ZM359.355 37.4842C357.206 37.4842 355.137 37.2115 353.148 36.6662C351.191 36.0888 349.635 35.3991 348.481 34.5971L350.79 30.0258C351.945 30.7637 353.324 31.3732 354.928 31.8543C356.532 32.3355 358.136 32.5761 359.74 32.5761C361.633 32.5761 362.996 32.3195 363.83 31.8062C364.696 31.293 365.129 30.6033 365.129 29.7371C365.129 29.0314 364.841 28.5021 364.263 28.1492C363.686 27.7643 362.932 27.4756 362.002 27.2831C361.072 27.0906 360.029 26.9142 358.874 26.7538C357.751 26.5934 356.613 26.3849 355.458 26.1282C354.335 25.8395 353.308 25.4385 352.378 24.9253C351.448 24.3799 350.694 23.6582 350.117 22.76C349.539 21.8617 349.25 20.6748 349.25 19.1992C349.25 17.5632 349.716 16.1517 350.646 14.9648C351.576 13.7458 352.875 12.8155 354.543 12.1739C356.244 11.5002 358.249 11.1634 360.558 11.1634C362.291 11.1634 364.039 11.3559 365.803 11.7408C367.568 12.1258 369.027 12.6711 370.182 13.3768L367.872 17.9481C366.653 17.2103 365.418 16.7131 364.167 16.4564C362.948 16.1677 361.729 16.0234 360.51 16.0234C358.682 16.0234 357.318 16.296 356.42 16.8414C355.554 17.3867 355.121 18.0764 355.121 18.9105C355.121 19.6804 355.41 20.2578 355.987 20.6427C356.564 21.0277 357.318 21.3324 358.249 21.557C359.179 21.7815 360.205 21.974 361.328 22.1344C362.483 22.2627 363.622 22.4712 364.745 22.76C365.867 23.0487 366.894 23.4497 367.824 23.9629C368.787 24.4441 369.556 25.1338 370.134 26.032C370.711 26.9302 371 28.1011 371 29.5447C371 31.1486 370.519 32.544 369.556 33.731C368.626 34.9179 367.295 35.8482 365.563 36.5218C363.83 37.1634 361.761 37.4842 359.355 37.4842Z" fill="url(#paint0_linear_1_1093)"/>
<defs>
<linearGradient id="paint0_linear_1_1093" x1="-3.40964" y1="-11.9736" x2="7.94759" y2="92.005" gradientUnits="userSpaceOnUse">
<stop stop-color="#15C0EA"/>
<stop offset="1" stop-color="#507EDF"/>
</linearGradient>
</defs>
</svg>
