<svg width="631" height="47" viewBox="0 0 631 47" fill="none" xmlns="http://www.w3.org/2000/svg">
<path d="M6.79979e-06 37.0825V3.4585H6.24447V37.0825H6.79979e-06ZM29.3171 11.144C31.3666 11.144 33.1919 11.5443 34.793 12.3449C36.4262 13.1454 37.7071 14.3783 38.6358 16.0435C39.5644 17.6767 40.0287 19.7902 40.0287 22.384V37.0825H34.0245V23.1526C34.0245 20.879 33.4801 19.1817 32.3913 18.0609C31.3345 16.9401 29.8455 16.3797 27.9241 16.3797C26.5151 16.3797 25.2662 16.6679 24.1774 17.2444C23.0886 17.8208 22.24 18.6854 21.6316 19.8382C21.0552 20.959 20.767 22.384 20.767 24.1133V37.0825H14.7627V11.4322H20.4788V18.3491L19.47 16.2356C20.3667 14.6025 21.6636 13.3536 23.3608 12.489C25.0901 11.5923 27.0755 11.144 29.3171 11.144ZM57.3005 37.4188C54.4825 37.4188 52.3049 36.6983 50.7678 35.2572C49.2307 33.7842 48.4621 31.6226 48.4621 28.7726V5.76415H54.4664V28.6285C54.4664 29.8454 54.7707 30.79 55.3791 31.4625C56.0196 32.135 56.9002 32.4712 58.021 32.4712C59.3659 32.4712 60.4867 32.119 61.3834 31.4145L63.0646 35.6895C62.3601 36.266 61.4955 36.6983 60.4707 36.9865C59.446 37.2747 58.3892 37.4188 57.3005 37.4188ZM44.2351 16.4278V11.6243H61.3354V16.4278H44.2351ZM68.0039 37.0825V11.4322H73.72V18.4932L73.0475 16.4278C73.816 14.6985 75.0169 13.3856 76.65 12.489C78.3152 11.5923 80.3807 11.144 82.8465 11.144V16.8601C82.5903 16.796 82.3501 16.764 82.126 16.764C81.9018 16.732 81.6776 16.716 81.4535 16.716C79.1799 16.716 77.3706 17.3885 76.0256 18.7334C74.6806 20.0464 74.0082 22.0158 74.0082 24.6416V37.0825H68.0039ZM99.2337 37.4188C96.6078 37.4188 94.2701 36.8584 92.2207 35.7376C90.1712 34.5848 88.5541 33.0156 87.3692 31.0302C86.1844 29.0448 85.5919 26.7872 85.5919 24.2574C85.5919 21.6955 86.1844 19.4379 87.3692 17.4845C88.5541 15.4991 90.1712 13.946 92.2207 12.8252C94.2701 11.7044 96.6078 11.144 99.2337 11.144C101.892 11.144 104.245 11.7044 106.295 12.8252C108.376 13.946 109.993 15.4831 111.146 17.4365C112.331 19.3899 112.923 21.6635 112.923 24.2574C112.923 26.7872 112.331 29.0448 111.146 31.0302C109.993 33.0156 108.376 34.5848 106.295 35.7376C104.245 36.8584 101.892 37.4188 99.2337 37.4188ZM99.2337 32.2791C100.707 32.2791 102.02 31.9589 103.173 31.3184C104.325 30.678 105.222 29.7493 105.862 28.5324C106.535 27.3156 106.871 25.8905 106.871 24.2574C106.871 22.5922 106.535 21.1672 105.862 19.9823C105.222 18.7654 104.325 17.8368 103.173 17.1963C102.02 16.5559 100.723 16.2356 99.2817 16.2356C97.8087 16.2356 96.4957 16.5559 95.3429 17.1963C94.2221 17.8368 93.3255 18.7654 92.653 19.9823C91.9805 21.1672 91.6443 22.5922 91.6443 24.2574C91.6443 25.8905 91.9805 27.3156 92.653 28.5324C93.3255 29.7493 94.2221 30.678 95.3429 31.3184C96.4957 31.9589 97.7927 32.2791 99.2337 32.2791ZM129.521 37.4188C127.055 37.4188 124.829 36.8744 122.844 35.7856C120.891 34.6648 119.354 33.1277 118.233 31.1743C117.112 29.2209 116.552 26.9153 116.552 24.2574C116.552 21.5995 117.112 19.2938 118.233 17.3404C119.354 15.387 120.891 13.8659 122.844 12.7772C124.829 11.6884 127.055 11.144 129.521 11.144C131.666 11.144 133.588 11.6243 135.285 12.585C136.982 13.5137 138.327 14.9387 139.32 16.8601C140.313 18.7815 140.809 21.2472 140.809 24.2574C140.809 27.2355 140.329 29.7013 139.368 31.6547C138.407 33.576 137.078 35.0171 135.381 35.9777C133.684 36.9384 131.73 37.4188 129.521 37.4188ZM130.241 32.2791C131.682 32.2791 132.963 31.9589 134.084 31.3184C135.237 30.678 136.15 29.7493 136.822 28.5324C137.527 27.3156 137.879 25.8905 137.879 24.2574C137.879 22.5922 137.527 21.1672 136.822 19.9823C136.15 18.7654 135.237 17.8368 134.084 17.1963C132.963 16.5559 131.682 16.2356 130.241 16.2356C128.8 16.2356 127.503 16.5559 126.351 17.1963C125.23 17.8368 124.317 18.7654 123.613 19.9823C122.94 21.1672 122.604 22.5922 122.604 24.2574C122.604 25.8905 122.94 27.3156 123.613 28.5324C124.317 29.7493 125.23 30.678 126.351 31.3184C127.503 31.9589 128.8 32.2791 130.241 32.2791ZM138.023 37.0825V31.0302L138.263 24.2093L137.783 17.3885V1.44106H143.739V37.0825H138.023ZM162.498 37.4188C160.32 37.4188 158.399 37.0185 156.733 36.2179C155.068 35.3853 153.771 34.1364 152.843 32.4712C151.914 30.774 151.45 28.6445 151.45 26.0827V11.4322H157.454V25.2661C157.454 27.5717 157.966 29.301 158.991 30.4538C160.048 31.5746 161.537 32.135 163.458 32.135C164.867 32.135 166.084 31.8468 167.109 31.2704C168.166 30.694 168.982 29.8294 169.559 28.6765C170.167 27.5237 170.471 26.0987 170.471 24.4015V11.4322H176.476V37.0825H170.759V30.1656L171.768 32.2791C170.904 33.9443 169.639 35.2252 167.973 36.1219C166.308 36.9865 164.483 37.4188 162.498 37.4188ZM196.105 37.4188C193.416 37.4188 191.014 36.8584 188.9 35.7376C186.819 34.5848 185.186 33.0156 184.001 31.0302C182.816 29.0448 182.224 26.7872 182.224 24.2574C182.224 21.6955 182.816 19.4379 184.001 17.4845C185.186 15.4991 186.819 13.946 188.9 12.8252C191.014 11.7044 193.416 11.144 196.105 11.144C198.603 11.144 200.797 11.6564 202.686 12.6811C204.608 13.6738 206.065 15.1469 207.057 17.1003L202.446 19.7902C201.677 18.5733 200.733 17.6767 199.612 17.1003C198.523 16.5238 197.338 16.2356 196.057 16.2356C194.584 16.2356 193.255 16.5559 192.071 17.1963C190.886 17.8368 189.957 18.7654 189.285 19.9823C188.612 21.1672 188.276 22.5922 188.276 24.2574C188.276 25.9226 188.612 27.3636 189.285 28.5805C189.957 29.7653 190.886 30.678 192.071 31.3184C193.255 31.9589 194.584 32.2791 196.057 32.2791C197.338 32.2791 198.523 31.9909 199.612 31.4145C200.733 30.8381 201.677 29.9414 202.446 28.7246L207.057 31.4145C206.065 33.3359 204.608 34.8249 202.686 35.8817C200.797 36.9064 198.603 37.4188 196.105 37.4188ZM212.013 37.0825V11.4322H218.017V37.0825H212.013ZM215.039 7.20518C213.918 7.20518 212.99 6.85293 212.253 6.14842C211.549 5.44392 211.196 4.59531 211.196 3.6026C211.196 2.57787 211.549 1.72926 212.253 1.05678C212.99 0.352281 213.918 2.95851e-05 215.039 2.95851e-05C216.16 2.95851e-05 217.073 0.336269 217.777 1.00875C218.514 1.64921 218.882 2.46579 218.882 3.4585C218.882 4.51526 218.53 5.4119 217.825 6.14842C217.121 6.85293 216.192 7.20518 215.039 7.20518ZM240.452 11.144C242.502 11.144 244.327 11.5443 245.928 12.3449C247.561 13.1454 248.842 14.3783 249.771 16.0435C250.7 17.6767 251.164 19.7902 251.164 22.384V37.0825H245.16V23.1526C245.16 20.879 244.615 19.1817 243.527 18.0609C242.47 16.9401 240.981 16.3797 239.059 16.3797C237.65 16.3797 236.401 16.6679 235.313 17.2444C234.224 17.8208 233.375 18.6854 232.767 19.8382C232.19 20.959 231.902 22.384 231.902 24.1133V37.0825H225.898V11.4322H231.614V18.3491L230.605 16.2356C231.502 14.6025 232.799 13.3536 234.496 12.489C236.225 11.5923 238.211 11.144 240.452 11.144ZM270.452 46.7374C268.082 46.7374 265.761 46.4172 263.487 45.7768C261.245 45.1683 259.404 44.2717 257.963 43.0868L260.653 38.5716C261.774 39.5003 263.183 40.2368 264.88 40.7812C266.609 41.3576 268.355 41.6458 270.116 41.6458C272.934 41.6458 274.999 40.9893 276.312 39.6764C277.625 38.3955 278.282 36.4581 278.282 33.8642V29.301L278.762 23.4888L278.57 17.6767V11.4322H284.286V33.1918C284.286 37.8351 283.101 41.2455 280.731 43.4231C278.362 45.6326 274.935 46.7374 270.452 46.7374ZM269.684 35.9297C267.25 35.9297 265.04 35.4173 263.055 34.3926C261.101 33.3359 259.548 31.8788 258.395 30.0215C257.275 28.1642 256.714 25.9866 256.714 23.4888C256.714 21.0231 257.275 18.8615 258.395 17.0042C259.548 15.1469 261.101 13.7058 263.055 12.6811C265.04 11.6564 267.25 11.144 269.684 11.144C271.861 11.144 273.814 11.5763 275.544 12.4409C277.273 13.3055 278.65 14.6505 279.675 16.4758C280.731 18.3011 281.26 20.6388 281.26 23.4888C281.26 26.3389 280.731 28.6925 279.675 30.5499C278.65 32.3752 277.273 33.7361 275.544 34.6328C273.814 35.4974 271.861 35.9297 269.684 35.9297ZM270.596 30.8381C272.101 30.8381 273.446 30.5339 274.631 29.9254C275.816 29.285 276.729 28.4203 277.369 27.3316C278.042 26.2108 278.378 24.9299 278.378 23.4888C278.378 22.0478 278.042 20.7829 277.369 19.6941C276.729 18.5733 275.816 17.7247 274.631 17.1483C273.446 16.5399 272.101 16.2356 270.596 16.2356C269.091 16.2356 267.73 16.5399 266.513 17.1483C265.328 17.7247 264.4 18.5733 263.727 19.6941C263.087 20.7829 262.767 22.0478 262.767 23.4888C262.767 24.9299 263.087 26.2108 263.727 27.3316C264.4 28.4203 265.328 29.285 266.513 29.9254C267.73 30.5339 269.091 30.8381 270.596 30.8381Z" fill="white"/>
<path d="M305.455 37.0825V11.4322H311.459V37.0825H305.455ZM308.481 7.20518C307.36 7.20518 306.432 6.85293 305.695 6.14842C304.991 5.44392 304.638 4.59531 304.638 3.6026C304.638 2.57787 304.991 1.72926 305.695 1.05678C306.432 0.352281 307.36 2.95851e-05 308.481 2.95851e-05C309.602 2.95851e-05 310.514 0.336269 311.219 1.00875C311.955 1.64921 312.324 2.46579 312.324 3.4585C312.324 4.51526 311.972 5.4119 311.267 6.14842C310.563 6.85293 309.634 7.20518 308.481 7.20518ZM319.916 37.0825V3.4585H325.056L346.143 29.349H343.597V3.4585H349.794V37.0825H344.654L323.567 11.192H326.113V37.0825H319.916ZM364.519 18.9256H381.283V24.2093H364.519V18.9256ZM365.048 37.0825H358.803V3.4585H383.349V8.69424H365.048V37.0825ZM396.443 37.0825V8.74228H385.299V3.4585H413.832V8.74228H402.688V37.0825H396.443ZM431.793 37.0825V3.4585H445.627C448.605 3.4585 451.151 3.93884 453.264 4.89953C455.41 5.86022 457.059 7.2372 458.212 9.03048C459.365 10.8238 459.941 12.9533 459.941 15.4191C459.941 17.8848 459.365 20.0143 458.212 21.8076C457.059 23.6009 455.41 24.9779 453.264 25.9386C451.151 26.8993 448.605 27.3796 445.627 27.3796H435.252L438.037 24.4495V37.0825H431.793ZM438.037 25.122L435.252 22.0958H445.339C448.093 22.0958 450.158 21.5194 451.535 20.3666C452.944 19.1817 453.649 17.5326 453.649 15.4191C453.649 13.2735 452.944 11.6243 451.535 10.4715C450.158 9.31869 448.093 8.74228 445.339 8.74228H435.252L438.037 5.66808V25.122ZM465.366 37.0825V11.4322H471.082V18.4932L470.41 16.4278C471.178 14.6985 472.379 13.3856 474.012 12.489C475.677 11.5923 477.743 11.144 480.209 11.144V16.8601C479.952 16.796 479.712 16.764 479.488 16.764C479.264 16.732 479.04 16.716 478.816 16.716C476.542 16.716 474.733 17.3885 473.388 18.7334C472.043 20.0464 471.37 22.0158 471.37 24.6416V37.0825H465.366ZM496.596 37.4188C493.97 37.4188 491.632 36.8584 489.583 35.7376C487.533 34.5848 485.916 33.0156 484.731 31.0302C483.547 29.0448 482.954 26.7872 482.954 24.2574C482.954 21.6955 483.547 19.4379 484.731 17.4845C485.916 15.4991 487.533 13.946 489.583 12.8252C491.632 11.7044 493.97 11.144 496.596 11.144C499.254 11.144 501.607 11.7044 503.657 12.8252C505.738 13.946 507.356 15.4831 508.508 17.4365C509.693 19.3899 510.286 21.6635 510.286 24.2574C510.286 26.7872 509.693 29.0448 508.508 31.0302C507.356 33.0156 505.738 34.5848 503.657 35.7376C501.607 36.8584 499.254 37.4188 496.596 37.4188ZM496.596 32.2791C498.069 32.2791 499.382 31.9589 500.535 31.3184C501.687 30.678 502.584 29.7493 503.225 28.5324C503.897 27.3156 504.233 25.8905 504.233 24.2574C504.233 22.5922 503.897 21.1672 503.225 19.9823C502.584 18.7654 501.687 17.8368 500.535 17.1963C499.382 16.5559 498.085 16.2356 496.644 16.2356C495.171 16.2356 493.858 16.5559 492.705 17.1963C491.584 17.8368 490.688 18.7654 490.015 19.9823C489.343 21.1672 489.006 22.5922 489.006 24.2574C489.006 25.8905 489.343 27.3156 490.015 28.5324C490.688 29.7493 491.584 30.678 492.705 31.3184C493.858 31.9589 495.155 32.2791 496.596 32.2791ZM525.682 37.4188C522.864 37.4188 520.687 36.6983 519.149 35.2572C517.612 33.7842 516.844 31.6226 516.844 28.7726V5.76415H522.848V28.6285C522.848 29.8454 523.152 30.79 523.761 31.4625C524.401 32.135 525.282 32.4712 526.403 32.4712C527.748 32.4712 528.868 32.119 529.765 31.4145L531.446 35.6895C530.742 36.266 529.877 36.6983 528.852 36.9865C527.828 37.2747 526.771 37.4188 525.682 37.4188ZM512.617 16.4278V11.6243H529.717V16.4278H512.617ZM547.069 37.4188C544.444 37.4188 542.106 36.8584 540.056 35.7376C538.007 34.5848 536.39 33.0156 535.205 31.0302C534.02 29.0448 533.428 26.7872 533.428 24.2574C533.428 21.6955 534.02 19.4379 535.205 17.4845C536.39 15.4991 538.007 13.946 540.056 12.8252C542.106 11.7044 544.444 11.144 547.069 11.144C549.727 11.144 552.081 11.7044 554.13 12.8252C556.212 13.946 557.829 15.4831 558.982 17.4365C560.167 19.3899 560.759 21.6635 560.759 24.2574C560.759 26.7872 560.167 29.0448 558.982 31.0302C557.829 33.0156 556.212 34.5848 554.13 35.7376C552.081 36.8584 549.727 37.4188 547.069 37.4188ZM547.069 32.2791C548.542 32.2791 549.855 31.9589 551.008 31.3184C552.161 30.678 553.058 29.7493 553.698 28.5324C554.371 27.3156 554.707 25.8905 554.707 24.2574C554.707 22.5922 554.371 21.1672 553.698 19.9823C553.058 18.7654 552.161 17.8368 551.008 17.1963C549.855 16.5559 548.559 16.2356 547.117 16.2356C545.644 16.2356 544.331 16.5559 543.179 17.1963C542.058 17.8368 541.161 18.7654 540.489 19.9823C539.816 21.1672 539.48 22.5922 539.48 24.2574C539.48 25.8905 539.816 27.3156 540.489 28.5324C541.161 29.7493 542.058 30.678 543.179 31.3184C544.331 31.9589 545.628 32.2791 547.069 32.2791ZM578.269 37.4188C575.579 37.4188 573.178 36.8584 571.064 35.7376C568.983 34.5848 567.349 33.0156 566.165 31.0302C564.98 29.0448 564.387 26.7872 564.387 24.2574C564.387 21.6955 564.98 19.4379 566.165 17.4845C567.349 15.4991 568.983 13.946 571.064 12.8252C573.178 11.7044 575.579 11.144 578.269 11.144C580.767 11.144 582.961 11.6564 584.85 12.6811C586.771 13.6738 588.228 15.1469 589.221 17.1003L584.61 19.7902C583.841 18.5733 582.897 17.6767 581.776 17.1003C580.687 16.5238 579.502 16.2356 578.221 16.2356C576.748 16.2356 575.419 16.5559 574.234 17.1963C573.05 17.8368 572.121 18.7654 571.448 19.9823C570.776 21.1672 570.44 22.5922 570.44 24.2574C570.44 25.9226 570.776 27.3636 571.448 28.5805C572.121 29.7653 573.05 30.678 574.234 31.3184C575.419 31.9589 576.748 32.2791 578.221 32.2791C579.502 32.2791 580.687 31.9909 581.776 31.4145C582.897 30.8381 583.841 29.9414 584.61 28.7246L589.221 31.4145C588.228 33.3359 586.771 34.8249 584.85 35.8817C582.961 36.9064 580.767 37.4188 578.269 37.4188ZM605.564 37.4188C602.938 37.4188 600.601 36.8584 598.551 35.7376C596.502 34.5848 594.885 33.0156 593.7 31.0302C592.515 29.0448 591.923 26.7872 591.923 24.2574C591.923 21.6955 592.515 19.4379 593.7 17.4845C594.885 15.4991 596.502 13.946 598.551 12.8252C600.601 11.7044 602.938 11.144 605.564 11.144C608.222 11.144 610.576 11.7044 612.625 12.8252C614.707 13.946 616.324 15.4831 617.477 17.4365C618.662 19.3899 619.254 21.6635 619.254 24.2574C619.254 26.7872 618.662 29.0448 617.477 31.0302C616.324 33.0156 614.707 34.5848 612.625 35.7376C610.576 36.8584 608.222 37.4188 605.564 37.4188ZM605.564 32.2791C607.037 32.2791 608.35 31.9589 609.503 31.3184C610.656 30.678 611.553 29.7493 612.193 28.5324C612.866 27.3156 613.202 25.8905 613.202 24.2574C613.202 22.5922 612.866 21.1672 612.193 19.9823C611.553 18.7654 610.656 17.8368 609.503 17.1963C608.35 16.5559 607.053 16.2356 605.612 16.2356C604.139 16.2356 602.826 16.5559 601.674 17.1963C600.553 17.8368 599.656 18.7654 598.984 19.9823C598.311 21.1672 597.975 22.5922 597.975 24.2574C597.975 25.8905 598.311 27.3156 598.984 28.5324C599.656 29.7493 600.553 30.678 601.674 31.3184C602.826 31.9589 604.123 32.2791 605.564 32.2791ZM624.996 37.0825V1.44106H631V37.0825H624.996Z" fill="url(#paint0_linear_1_859)"/>
<defs>
<linearGradient id="paint0_linear_1_859" x1="-4.51522" y1="-11.9525" x2="2.18999" y2="92.6528" gradientUnits="userSpaceOnUse">
<stop stop-color="#15C0EA"/>
<stop offset="1" stop-color="#507EDF"/>
</linearGradient>
</defs>
</svg>
