<svg width="104" height="24" viewBox="0 0 104 24" fill="none" xmlns="http://www.w3.org/2000/svg">
<path d="M19.27 5.33C17.94 4.71 16.5 4.26 15 4C14.9736 4.00038 14.9485 4.01116 14.93 4.03C14.75 4.36 14.54 4.79 14.4 5.12C12.809 4.88015 11.191 4.88015 9.6 5.12C9.46 4.78 9.25 4.36 9.06 4.03C9.05 4.01 9.02 4 8.99 4C7.49 4.26 6.06 4.71 4.72 5.33C4.71 5.33 4.7 5.34 4.69 5.35C1.97 9.42 1.22 13.38 1.59 17.3C1.59 17.32 1.6 17.34 1.62 17.35C3.42 18.67 5.15 19.47 6.86 20C6.89 20.01 6.91999 20 6.93 19.98C7.33 19.43 7.69 18.85 8 18.24C8.02 18.2 8 18.16 7.96 18.15C7.39 17.93 6.85 17.67 6.32 17.37C6.28 17.35 6.27999 17.29 6.31 17.26C6.42 17.18 6.52999 17.09 6.64 17.01C6.66 16.99 6.69 16.99 6.71 17C10.15 18.57 13.86 18.57 17.26 17C17.28 16.99 17.31 16.99 17.33 17.01C17.44 17.1 17.55 17.18 17.66 17.27C17.7 17.3 17.7 17.36 17.65 17.38C17.13 17.69 16.58 17.94 16.01 18.16C15.97 18.17 15.96 18.22 15.97 18.25C16.29 18.86 16.65 19.44 17.04 19.99C17.07 20 17.1 20.01 17.13 20C18.85 19.47 20.58 18.67 22.38 17.35C22.4 17.34 22.41 17.32 22.41 17.3C22.85 12.77 21.68 8.84 19.31 5.35C19.3 5.34 19.29 5.33 19.27 5.33ZM8.52 14.91C7.49 14.91 6.63 13.96 6.63 12.79C6.63 11.62 7.47 10.67 8.52 10.67C9.58 10.67 10.42 11.63 10.41 12.79C10.41 13.96 9.57 14.91 8.52 14.91ZM15.49 14.91C14.46 14.91 13.6 13.96 13.6 12.79C13.6 11.62 14.44 10.67 15.49 10.67C16.55 10.67 17.39 11.63 17.38 12.79C17.38 13.96 16.55 14.91 15.49 14.91Z" fill="white" fill-opacity="0.64"/>
<path d="M59 3C59.5304 3 60.0391 3.21071 60.4142 3.58579C60.7893 3.96086 61 4.46957 61 5V19C61 19.5304 60.7893 20.0391 60.4142 20.4142C60.0391 20.7893 59.5304 21 59 21H45C44.4696 21 43.9609 20.7893 43.5858 20.4142C43.2107 20.0391 43 19.5304 43 19V5C43 4.46957 43.2107 3.96086 43.5858 3.58579C43.9609 3.21071 44.4696 3 45 3H59ZM58.5 18.5V13.2C58.5 12.3354 58.1565 11.5062 57.5452 10.8948C56.9338 10.2835 56.1046 9.94 55.24 9.94C54.39 9.94 53.4 10.46 52.92 11.24V10.13H50.13V18.5H52.92V13.57C52.92 12.8 53.54 12.17 54.31 12.17C54.6813 12.17 55.0374 12.3175 55.2999 12.5801C55.5625 12.8426 55.71 13.1987 55.71 13.57V18.5H58.5ZM46.88 8.56C47.3256 8.56 47.7529 8.383 48.0679 8.06794C48.383 7.75288 48.56 7.32556 48.56 6.88C48.56 5.95 47.81 5.19 46.88 5.19C46.4318 5.19 46.0019 5.36805 45.685 5.68499C45.3681 6.00193 45.19 6.43178 45.19 6.88C45.19 7.81 45.95 8.56 46.88 8.56ZM48.27 18.5V10.13H45.5V18.5H48.27Z" fill="white" fill-opacity="0.64"/>
<path d="M90.488 14.651L95.25 21H102.25L94.392 10.522L100.93 3H98.28L93.163 8.886L88.75 3H81.75L89.26 13.015L82.32 21H84.97L90.488 14.651ZM96.25 19L85.75 5H87.75L98.25 19H96.25Z" fill="white" fill-opacity="0.64"/>
</svg>
