<svg width="363" height="36" viewBox="0 0 363 36" fill="none" xmlns="http://www.w3.org/2000/svg">
<path d="M-2.37542e-05 35.6636V2.01889H5.14281L19.8504 26.5795H17.1588L31.626 2.01889H36.7689L36.8169 35.6636H30.9051L30.857 11.2952H32.1067L19.8023 31.8185H17.0146L4.51798 11.2952H5.9599V35.6636H-2.37542e-05ZM57.392 36.0001C54.5402 36.0001 52.0409 35.4393 49.894 34.3178C47.7792 33.1643 46.129 31.5942 44.9435 29.6076C43.7899 27.6209 43.2132 25.3619 43.2132 22.8306C43.2132 20.2671 43.7739 18.0081 44.8954 16.0535C46.0489 14.0669 47.619 12.5128 49.6057 11.3914C51.6243 10.2699 53.9154 9.70912 56.4788 9.70912C58.9781 9.70912 61.2051 10.2538 63.1597 11.3433C65.1143 12.4327 66.6523 13.9708 67.7738 15.9574C68.8953 17.9441 69.4561 20.2832 69.4561 22.9747C69.4561 23.2311 69.44 23.5195 69.408 23.8399C69.408 24.1603 69.392 24.4647 69.3599 24.7531H47.9715V20.7638H66.1877L63.8326 22.0135C63.8646 20.5395 63.5602 19.2418 62.9194 18.1203C62.2785 16.9988 61.3973 16.1176 60.2758 15.4768C59.1864 14.8359 57.9207 14.5155 56.4788 14.5155C55.0048 14.5155 53.7071 14.8359 52.5856 15.4768C51.4962 16.1176 50.631 17.0148 49.9902 18.1684C49.3814 19.2899 49.077 20.6196 49.077 22.1577V23.1189C49.077 24.657 49.4294 26.0188 50.1344 27.2044C50.8393 28.3899 51.8326 29.3032 53.1143 29.944C54.396 30.5849 55.87 30.9053 57.5362 30.9053C58.9781 30.9053 60.2758 30.681 61.4294 30.2324C62.5829 29.7838 63.6083 29.0789 64.5055 28.1176L67.7257 31.8185C66.5722 33.1643 65.1143 34.2057 63.3519 34.9427C61.6216 35.6476 59.635 36.0001 57.392 36.0001ZM87.2911 36.0001C84.4393 36.0001 81.94 35.4393 79.7932 34.3178C77.6784 33.1643 76.0282 31.5942 74.8426 29.6076C73.689 27.6209 73.1123 25.3619 73.1123 22.8306C73.1123 20.2671 73.673 18.0081 74.7945 16.0535C75.9481 14.0669 77.5181 12.5128 79.5048 11.3914C81.5235 10.2699 83.8145 9.70912 86.3779 9.70912C88.8772 9.70912 91.1042 10.2538 93.0588 11.3433C95.0134 12.4327 96.5514 13.9708 97.6729 15.9574C98.7944 17.9441 99.3552 20.2832 99.3552 22.9747C99.3552 23.2311 99.3391 23.5195 99.3071 23.8399C99.3071 24.1603 99.2911 24.4647 99.259 24.7531H77.8706V20.7638H96.0868L93.7317 22.0135C93.7637 20.5395 93.4593 19.2418 92.8185 18.1203C92.1776 16.9988 91.2965 16.1176 90.175 15.4768C89.0855 14.8359 87.8198 14.5155 86.3779 14.5155C84.904 14.5155 83.6062 14.8359 82.4847 15.4768C81.3953 16.1176 80.5301 17.0148 79.8893 18.1684C79.2805 19.2899 78.9761 20.6196 78.9761 22.1577V23.1189C78.9761 24.657 79.3285 26.0188 80.0335 27.2044C80.7384 28.3899 81.7317 29.3032 83.0134 29.944C84.2951 30.5849 85.7691 30.9053 87.4353 30.9053C88.8772 30.9053 90.175 30.681 91.3285 30.2324C92.482 29.7838 93.5074 29.0789 94.4046 28.1176L97.6249 31.8185C96.4713 33.1643 95.0134 34.2057 93.2511 34.9427C91.5208 35.6476 89.5341 36.0001 87.2911 36.0001ZM114.787 36.0001C111.967 36.0001 109.788 35.2791 108.25 33.8372C106.712 32.3632 105.943 30.2004 105.943 27.3486V4.32596H111.951V27.2044C111.951 28.422 112.256 29.3672 112.864 30.0401C113.505 30.713 114.387 31.0495 115.508 31.0495C116.854 31.0495 117.975 30.697 118.872 29.9921L120.555 34.2698C119.85 34.8465 118.985 35.2791 117.959 35.5675C116.934 35.8559 115.877 36.0001 114.787 36.0001ZM101.714 14.9961V10.1898H118.824V14.9961H101.714Z" fill="white"/>
<path d="M148.441 36.0001C145.621 36.0001 143.443 35.2791 141.904 33.8372C140.366 32.3632 139.597 30.2004 139.597 27.3486V4.32596H145.605V27.2044C145.605 28.422 145.91 29.3672 146.519 30.0401C147.159 30.713 148.041 31.0495 149.162 31.0495C150.508 31.0495 151.629 30.697 152.527 29.9921L154.209 34.2698C153.504 34.8465 152.639 35.2791 151.613 35.5675C150.588 35.8559 149.531 36.0001 148.441 36.0001ZM135.368 14.9961V10.1898H152.479V14.9961H135.368ZM173.715 9.70912C175.765 9.70912 177.592 10.1096 179.194 10.9107C180.828 11.7118 182.11 12.9454 183.039 14.6116C183.968 16.2458 184.433 18.3606 184.433 20.9561V35.6636H178.425V21.7251C178.425 19.4501 177.88 17.7518 176.791 16.6303C175.733 15.5088 174.243 14.9481 172.321 14.9481C170.911 14.9481 169.661 15.2365 168.572 15.8132C167.482 16.39 166.633 17.2551 166.024 18.4087C165.448 19.5302 165.159 20.9561 165.159 22.6864V35.6636H159.151V0.000209133H165.159V16.9187L163.861 14.8039C164.759 13.1697 166.056 11.9201 167.755 11.0549C169.485 10.1577 171.472 9.70912 173.715 9.70912ZM204.165 36.0001C201.313 36.0001 198.814 35.4393 196.667 34.3178C194.552 33.1643 192.902 31.5942 191.717 29.6076C190.563 27.6209 189.986 25.3619 189.986 22.8306C189.986 20.2671 190.547 18.0081 191.669 16.0535C192.822 14.0669 194.392 12.5128 196.379 11.3914C198.398 10.2699 200.689 9.70912 203.252 9.70912C205.751 9.70912 207.978 10.2538 209.933 11.3433C211.887 12.4327 213.426 13.9708 214.547 15.9574C215.669 17.9441 216.229 20.2832 216.229 22.9747C216.229 23.2311 216.213 23.5195 216.181 23.8399C216.181 24.1603 216.165 24.4647 216.133 24.7531H194.745V20.7638H212.961L210.606 22.0135C210.638 20.5395 210.333 19.2418 209.693 18.1203C209.052 16.9988 208.171 16.1176 207.049 15.4768C205.96 14.8359 204.694 14.5155 203.252 14.5155C201.778 14.5155 200.48 14.8359 199.359 15.4768C198.269 16.1176 197.404 17.0148 196.763 18.1684C196.155 19.2899 195.85 20.6196 195.85 22.1577V23.1189C195.85 24.657 196.203 26.0188 196.908 27.2044C197.613 28.3899 198.606 29.3032 199.888 29.944C201.169 30.5849 202.643 30.9053 204.309 30.9053C205.751 30.9053 207.049 30.681 208.203 30.2324C209.356 29.7838 210.381 29.0789 211.279 28.1176L214.499 31.8185C213.345 33.1643 211.887 34.2057 210.125 34.9427C208.395 35.6476 206.408 36.0001 204.165 36.0001ZM242.685 35.6636V7.30592H231.535V2.01889H260.085V7.30592H248.934V35.6636H242.685ZM273.633 36.0001C270.781 36.0001 268.281 35.4393 266.135 34.3178C264.02 33.1643 262.37 31.5942 261.184 29.6076C260.03 27.6209 259.454 25.3619 259.454 22.8306C259.454 20.2671 260.014 18.0081 261.136 16.0535C262.289 14.0669 263.86 12.5128 265.846 11.3914C267.865 10.2699 270.156 9.70912 272.719 9.70912C275.219 9.70912 277.446 10.2538 279.4 11.3433C281.355 12.4327 282.893 13.9708 284.014 15.9574C285.136 17.9441 285.697 20.2832 285.697 22.9747C285.697 23.2311 285.681 23.5195 285.649 23.8399C285.649 24.1603 285.633 24.4647 285.6 24.7531H264.212V20.7638H282.428L280.073 22.0135C280.105 20.5395 279.801 19.2418 279.16 18.1203C278.519 16.9988 277.638 16.1176 276.516 15.4768C275.427 14.8359 274.161 14.5155 272.719 14.5155C271.245 14.5155 269.948 14.8359 268.826 15.4768C267.737 16.1176 266.872 17.0148 266.231 18.1684C265.622 19.2899 265.318 20.6196 265.318 22.1577V23.1189C265.318 24.657 265.67 26.0188 266.375 27.2044C267.08 28.3899 268.073 29.3032 269.355 29.944C270.637 30.5849 272.111 30.9053 273.777 30.9053C275.219 30.9053 276.516 30.681 277.67 30.2324C278.823 29.7838 279.849 29.0789 280.746 28.1176L283.966 31.8185C282.813 33.1643 281.355 34.2057 279.592 34.9427C277.862 35.6476 275.876 36.0001 273.633 36.0001ZM306.577 35.6636V30.4727L306.24 29.3672V20.2832C306.24 18.5208 305.711 17.159 304.654 16.1977C303.597 15.2044 301.995 14.7078 299.848 14.7078C298.406 14.7078 296.98 14.9321 295.57 15.3807C294.192 15.8293 293.023 16.4541 292.061 17.2551L289.706 12.8813C291.084 11.8239 292.718 11.0389 294.609 10.5262C296.531 9.98148 298.518 9.70912 300.569 9.70912C304.286 9.70912 307.153 10.6063 309.172 12.4007C311.223 14.163 312.248 16.9027 312.248 20.6196V35.6636H306.577ZM298.502 36.0001C296.579 36.0001 294.897 35.6796 293.455 35.0388C292.013 34.3659 290.892 33.4527 290.091 32.2991C289.322 31.1136 288.937 29.7838 288.937 28.3098C288.937 26.8679 289.274 25.5702 289.947 24.4167C290.651 23.2631 291.789 22.3499 293.359 21.677C294.929 21.0041 297.012 20.6677 299.607 20.6677H307.057V24.657H300.04C297.989 24.657 296.611 24.9934 295.906 25.6663C295.201 26.3072 294.849 27.1082 294.849 28.0695C294.849 29.159 295.282 30.0241 296.147 30.665C297.012 31.3058 298.213 31.6262 299.752 31.6262C301.225 31.6262 302.539 31.2898 303.693 30.6169C304.878 29.944 305.727 28.9507 306.24 27.6369L307.25 31.2417C306.673 32.7477 305.631 33.9173 304.125 34.7504C302.651 35.5835 300.777 36.0001 298.502 36.0001ZM352.354 9.70912C354.404 9.70912 356.215 10.1096 357.785 10.9107C359.387 11.7118 360.637 12.9454 361.534 14.6116C362.431 16.2458 362.88 18.3606 362.88 20.9561V35.6636H356.872V21.7251C356.872 19.4501 356.375 17.7518 355.382 16.6303C354.388 15.5088 352.963 14.9481 351.104 14.9481C349.79 14.9481 348.621 15.2365 347.595 15.8132C346.602 16.39 345.817 17.2391 345.24 18.3606C344.696 19.4821 344.423 20.908 344.423 22.6383V35.6636H338.415V21.7251C338.415 19.4501 337.919 17.7518 336.925 16.6303C335.932 15.5088 334.506 14.9481 332.648 14.9481C331.334 14.9481 330.164 15.2365 329.139 15.8132C328.146 16.39 327.36 17.2391 326.784 18.3606C326.239 19.4821 325.967 20.908 325.967 22.6383V35.6636H319.959V9.9975H325.678V16.8226L324.669 14.8039C325.534 13.1377 326.784 11.872 328.418 11.0068C330.084 10.1417 331.975 9.70912 334.089 9.70912C336.493 9.70912 338.575 10.3019 340.338 11.4875C342.132 12.6731 343.318 14.4674 343.894 16.8706L341.539 16.0535C342.372 14.131 343.75 12.5929 345.673 11.4394C347.595 10.2859 349.822 9.70912 352.354 9.70912Z" fill="url(#paint0_linear_1_1223)"/>
<defs>
<linearGradient id="paint0_linear_1_1223" x1="-4.69796" y1="-13.4016" x2="6.76577" y2="90.4324" gradientUnits="userSpaceOnUse">
<stop stop-color="#15C0EA"/>
<stop offset="1" stop-color="#507EDF"/>
</linearGradient>
</defs>
</svg>
