<svg width="726" height="62" viewBox="0 0 726 62" fill="none" xmlns="http://www.w3.org/2000/svg">
<path d="M9.06849e-06 49.455V4.61257H6.8545L34.9771 39.1413H31.5819V4.61257H39.8457V49.455H32.9913L4.86862 14.9263H8.26383V49.455H9.06849e-06ZM67.1721 49.9035C63.3712 49.9035 60.04 49.1561 57.1787 47.6613C54.36 46.1239 52.1606 44.0312 50.5804 41.3834C49.043 38.7356 48.2742 35.7247 48.2742 32.3508C48.2742 28.9343 49.0216 25.9234 50.5163 23.3183C52.0538 20.6704 54.1465 18.5991 56.7943 17.1044C59.4848 15.6097 62.5384 14.8623 65.955 14.8623C69.2861 14.8623 72.2543 15.5883 74.8594 17.0403C77.4645 18.4924 79.5145 20.5423 81.0092 23.1902C82.504 25.838 83.2513 28.9556 83.2513 32.543C83.2513 32.8847 83.23 33.269 83.1873 33.6961C83.1873 34.1232 83.1659 34.5289 83.1232 34.9133H54.6162V29.5962H78.8952L75.7562 31.2618C75.799 29.2973 75.3932 27.5676 74.5391 26.0729C73.685 24.5781 72.5105 23.4037 71.0158 22.5496C69.5637 21.6954 67.8768 21.2683 65.955 21.2683C63.9904 21.2683 62.2608 21.6954 60.7661 22.5496C59.314 23.4037 58.1609 24.5995 57.3068 26.137C56.4953 27.6317 56.0896 29.404 56.0896 31.454V32.7352C56.0896 34.7851 56.5594 36.6002 57.499 38.1804C58.4385 39.7605 59.7624 40.9777 61.4707 41.8318C63.179 42.686 65.1435 43.113 67.3643 43.113C69.2861 43.113 71.0158 42.8141 72.5532 42.2162C74.0907 41.6183 75.4573 40.6787 76.6531 39.3975L80.9452 44.3302C79.4077 46.1239 77.4645 47.5119 75.1156 48.4941C72.8095 49.4337 70.1616 49.9035 67.1721 49.9035ZM99.4142 49.455L84.7443 15.2466H93.0721L105.692 45.4192H101.592L114.661 15.2466H122.348L107.678 49.455H99.4142ZM142.493 49.9035C138.693 49.9035 135.361 49.1561 132.5 47.6613C129.681 46.1239 127.482 44.0312 125.902 41.3834C124.364 38.7356 123.596 35.7247 123.596 32.3508C123.596 28.9343 124.343 25.9234 125.838 23.3183C127.375 20.6704 129.468 18.5991 132.116 17.1044C134.806 15.6097 137.86 14.8623 141.276 14.8623C144.607 14.8623 147.576 15.5883 150.181 17.0403C152.786 18.4924 154.836 20.5423 156.331 23.1902C157.825 25.838 158.573 28.9556 158.573 32.543C158.573 32.8847 158.551 33.269 158.509 33.6961C158.509 34.1232 158.487 34.5289 158.445 34.9133H129.938V29.5962H154.217L151.078 31.2618C151.12 29.2973 150.715 27.5676 149.86 26.0729C149.006 24.5781 147.832 23.4037 146.337 22.5496C144.885 21.6954 143.198 21.2683 141.276 21.2683C139.312 21.2683 137.582 21.6954 136.087 22.5496C134.635 23.4037 133.482 24.5995 132.628 26.137C131.817 27.6317 131.411 29.404 131.411 31.454V32.7352C131.411 34.7851 131.881 36.6002 132.82 38.1804C133.76 39.7605 135.084 40.9777 136.792 41.8318C138.5 42.686 140.465 43.113 142.686 43.113C144.607 43.113 146.337 42.8141 147.875 42.2162C149.412 41.6183 150.779 40.6787 151.974 39.3975L156.266 44.3302C154.729 46.1239 152.786 47.5119 150.437 48.4941C148.131 49.4337 145.483 49.9035 142.493 49.9035ZM166.264 49.455V15.2466H173.888V24.6636L172.991 21.9089C174.016 19.6028 175.617 17.8518 177.795 16.656C180.016 15.4602 182.771 14.8623 186.059 14.8623V22.4855C185.718 22.4001 185.397 22.3574 185.098 22.3574C184.799 22.3147 184.5 22.2933 184.201 22.2933C181.169 22.2933 178.756 23.1902 176.963 24.9839C175.169 26.7349 174.272 29.3613 174.272 32.8633V49.455H166.264Z" fill="white"/>
<path d="M254.046 14.8623C256.779 14.8623 259.192 15.3961 261.285 16.4638C263.42 17.5315 265.086 19.1757 266.282 21.3965C267.477 23.5745 268.075 26.3932 268.075 29.8525V49.455H260.068V30.8774C260.068 27.8452 259.406 25.5818 258.082 24.087C256.758 22.5923 254.858 21.8449 252.381 21.8449C250.63 21.8449 249.071 22.2293 247.704 22.998C246.38 23.7667 245.334 24.8984 244.565 26.3932C243.839 27.8879 243.476 29.7884 243.476 32.0946V49.455H235.468V30.8774C235.468 27.8452 234.807 25.5818 233.483 24.087C232.159 22.5923 230.258 21.8449 227.781 21.8449C226.03 21.8449 224.471 22.2293 223.105 22.998C221.781 23.7667 220.735 24.8984 219.966 26.3932C219.24 27.8879 218.877 29.7884 218.877 32.0946V49.455H210.869V15.2466H218.492V24.3433L217.147 21.6527C218.3 19.4319 219.966 17.745 222.144 16.5919C224.365 15.4388 226.884 14.8623 229.703 14.8623C232.906 14.8623 235.682 15.6524 238.031 17.2325C240.423 18.8127 242.003 21.2043 242.771 24.4073L239.632 23.3183C240.743 20.7559 242.579 18.7059 245.142 17.1685C247.704 15.631 250.672 14.8623 254.046 14.8623ZM278.308 49.455V15.2466H286.316V49.455H278.308ZM282.344 9.6093C280.849 9.6093 279.611 9.13952 278.628 8.19996C277.689 7.26041 277.219 6.12867 277.219 4.80475C277.219 3.43812 277.689 2.30638 278.628 1.40953C279.611 0.46998 280.849 0.000202371 282.344 0.000202371C283.839 0.000202371 285.056 0.448626 285.995 1.34547C286.978 2.19962 287.469 3.28865 287.469 4.61257C287.469 6.0219 286.999 7.2177 286.059 8.19996C285.12 9.13952 283.881 9.6093 282.344 9.6093ZM307.396 49.9035C304.534 49.9035 301.78 49.5404 299.132 48.8144C296.527 48.0457 294.455 47.1275 292.918 46.0598L295.993 39.9741C297.53 40.9563 299.367 41.7678 301.502 42.4084C303.637 43.049 305.773 43.3693 307.908 43.3693C310.428 43.3693 312.243 43.0276 313.353 42.3443C314.506 41.661 315.083 40.7428 315.083 39.5897C315.083 38.6501 314.699 37.9455 313.93 37.4757C313.161 36.9632 312.157 36.5788 310.919 36.3226C309.68 36.0664 308.292 35.8315 306.755 35.6179C305.26 35.4044 303.744 35.1268 302.207 34.7851C300.712 34.4008 299.345 33.8669 298.107 33.1836C296.868 32.4576 295.865 31.4967 295.096 30.3009C294.327 29.1051 293.943 27.5249 293.943 25.5604C293.943 23.3823 294.562 21.5032 295.801 19.9231C297.039 18.3002 298.769 17.0617 300.99 16.2075C303.253 15.3107 305.922 14.8623 308.997 14.8623C311.303 14.8623 313.631 15.1185 315.98 15.631C318.329 16.1435 320.272 16.8695 321.809 17.8091L318.734 23.8948C317.111 22.9126 315.467 22.2506 313.802 21.9089C312.179 21.5246 310.556 21.3324 308.933 21.3324C306.499 21.3324 304.684 21.6954 303.488 22.4214C302.335 23.1475 301.758 24.0657 301.758 25.176C301.758 26.201 302.143 26.9697 302.911 27.4822C303.68 27.9947 304.684 28.4004 305.922 28.6994C307.161 28.9983 308.527 29.2546 310.022 29.4681C311.56 29.6389 313.076 29.9165 314.57 30.3009C316.065 30.6853 317.432 31.2191 318.67 31.9024C319.951 32.543 320.976 33.4612 321.745 34.657C322.514 35.8528 322.898 37.4116 322.898 39.3335C322.898 41.4688 322.258 43.3266 320.976 44.9067C319.738 46.4869 317.966 47.7254 315.659 48.6222C313.353 49.4764 310.599 49.9035 307.396 49.9035ZM340.364 49.9035C337.503 49.9035 334.748 49.5404 332.1 48.8144C329.495 48.0457 327.424 47.1275 325.887 46.0598L328.962 39.9741C330.499 40.9563 332.335 41.7678 334.471 42.4084C336.606 43.049 338.741 43.3693 340.877 43.3693C343.397 43.3693 345.212 43.0276 346.322 42.3443C347.475 41.661 348.052 40.7428 348.052 39.5897C348.052 38.6501 347.667 37.9455 346.899 37.4757C346.13 36.9632 345.126 36.5788 343.888 36.3226C342.649 36.0664 341.261 35.8315 339.724 35.6179C338.229 35.4044 336.713 35.1268 335.175 34.7851C333.681 34.4008 332.314 33.8669 331.076 33.1836C329.837 32.4576 328.833 31.4967 328.065 30.3009C327.296 29.1051 326.912 27.5249 326.912 25.5604C326.912 23.3823 327.531 21.5032 328.769 19.9231C330.008 18.3002 331.737 17.0617 333.958 16.2075C336.222 15.3107 338.891 14.8623 341.966 14.8623C344.272 14.8623 346.6 15.1185 348.948 15.631C351.297 16.1435 353.241 16.8695 354.778 17.8091L351.703 23.8948C350.08 22.9126 348.436 22.2506 346.77 21.9089C345.148 21.5246 343.525 21.3324 341.902 21.3324C339.467 21.3324 337.652 21.6954 336.457 22.4214C335.304 23.1475 334.727 24.0657 334.727 25.176C334.727 26.201 335.111 26.9697 335.88 27.4822C336.649 27.9947 337.652 28.4004 338.891 28.6994C340.129 28.9983 341.496 29.2546 342.991 29.4681C344.528 29.6389 346.044 29.9165 347.539 30.3009C349.034 30.6853 350.4 31.2191 351.639 31.9024C352.92 32.543 353.945 33.4612 354.714 34.657C355.483 35.8528 355.867 37.4116 355.867 39.3335C355.867 41.4688 355.226 43.3266 353.945 44.9067C352.707 46.4869 350.934 47.7254 348.628 48.6222C346.322 49.4764 343.567 49.9035 340.364 49.9035ZM401.543 49.455V42.5365L401.095 41.0631V28.9556C401.095 26.6067 400.39 24.7917 398.981 23.5105C397.571 22.1865 395.436 21.5246 392.575 21.5246C390.653 21.5246 388.752 21.8235 386.873 22.4214C385.037 23.0193 383.478 23.8521 382.197 24.9198L379.058 19.0903C380.894 17.6809 383.072 16.6346 385.592 15.9513C388.155 15.2253 390.802 14.8623 393.536 14.8623C398.49 14.8623 402.312 16.0581 405.003 18.4497C407.736 20.7986 409.102 24.45 409.102 29.404V49.455H401.543ZM390.781 49.9035C388.219 49.9035 385.977 49.4764 384.055 48.6222C382.133 47.7254 380.638 46.5082 379.57 44.9708C378.545 43.3906 378.033 41.6183 378.033 39.6538C378.033 37.7319 378.481 36.0023 379.378 34.4648C380.318 32.9274 381.834 31.7102 383.927 30.8134C386.019 29.9165 388.795 29.4681 392.254 29.4681H402.184V34.7851H392.831C390.098 34.7851 388.261 35.2336 387.322 36.1304C386.382 36.9846 385.912 38.0522 385.912 39.3335C385.912 40.7855 386.489 41.9386 387.642 42.7927C388.795 43.6469 390.397 44.0739 392.447 44.0739C394.411 44.0739 396.162 43.6255 397.7 42.7287C399.28 41.8318 400.412 40.5079 401.095 38.7569L402.44 43.5615C401.671 45.5687 400.283 47.1275 398.276 48.2379C396.312 49.3483 393.813 49.9035 390.781 49.9035ZM438.79 14.8623C441.523 14.8623 443.957 15.3961 446.092 16.4638C448.271 17.5315 449.979 19.1757 451.217 21.3965C452.456 23.5745 453.075 26.3932 453.075 29.8525V49.455H445.067V30.8774C445.067 27.8452 444.341 25.5818 442.889 24.087C441.48 22.5923 439.494 21.8449 436.932 21.8449C435.053 21.8449 433.387 22.2293 431.935 22.998C430.483 23.7667 429.351 24.9198 428.54 26.4573C427.771 27.952 427.387 29.8525 427.387 32.1587V49.455H419.379V15.2466H427.002V24.4714L425.657 21.6527C426.853 19.4746 428.583 17.8091 430.846 16.656C433.152 15.4602 435.8 14.8623 438.79 14.8623ZM495.415 49.9035C492.511 49.9035 489.949 49.3696 487.728 48.3019C485.507 47.1916 483.777 45.526 482.539 43.3052C481.3 41.0417 480.681 38.2017 480.681 34.7851V15.2466H488.689V33.6961C488.689 36.771 489.372 39.0772 490.739 40.6147C492.148 42.1094 494.134 42.8568 496.696 42.8568C498.575 42.8568 500.198 42.4724 501.565 41.7037C502.974 40.935 504.063 39.7819 504.832 38.2444C505.644 36.707 506.049 34.8065 506.049 32.543V15.2466H514.057V49.455H506.434V40.2303L507.779 43.049C506.626 45.2697 504.939 46.978 502.718 48.1738C500.497 49.3269 498.063 49.9035 495.415 49.9035ZM543.503 49.9035C540.727 49.9035 538.186 49.2629 535.88 47.9816C533.616 46.7004 531.801 44.7786 530.435 42.2162C529.111 39.611 528.449 36.3226 528.449 32.3508C528.449 28.3364 529.09 25.0479 530.371 22.4855C531.695 19.9231 533.488 18.0226 535.752 16.7841C538.015 15.5029 540.599 14.8623 543.503 14.8623C546.877 14.8623 549.845 15.5883 552.408 17.0403C555.013 18.4924 557.063 20.521 558.557 23.1261C560.095 25.7312 560.864 28.8061 560.864 32.3508C560.864 35.8955 560.095 38.9918 558.557 41.6396C557.063 44.2448 555.013 46.2734 552.408 47.7254C549.845 49.1774 546.877 49.9035 543.503 49.9035ZM524.541 61.8828V15.2466H532.164V23.3183L531.908 32.4149L532.549 41.5115V61.8828H524.541ZM542.606 43.049C544.528 43.049 546.236 42.6219 547.731 41.7678C549.269 40.9136 550.486 39.6751 551.383 38.0522C552.28 36.4294 552.728 34.5289 552.728 32.3508C552.728 30.1301 552.28 28.2296 551.383 26.6494C550.486 25.0266 549.269 23.7881 547.731 22.9339C546.236 22.0798 544.528 21.6527 542.606 21.6527C540.685 21.6527 538.955 22.0798 537.417 22.9339C535.88 23.7881 534.663 25.0266 533.766 26.6494C532.869 28.2296 532.421 30.1301 532.421 32.3508C532.421 34.5289 532.869 36.4294 533.766 38.0522C534.663 39.6751 535.88 40.9136 537.417 41.7678C538.955 42.6219 540.685 43.049 542.606 43.049ZM582.936 49.9035C579.647 49.9035 576.679 49.1774 574.031 47.7254C571.426 46.2306 569.376 44.1807 567.881 41.5756C566.387 38.9704 565.639 35.8955 565.639 32.3508C565.639 28.8061 566.387 25.7312 567.881 23.1261C569.376 20.521 571.426 18.4924 574.031 17.0403C576.679 15.5883 579.647 14.8623 582.936 14.8623C585.797 14.8623 588.359 15.5029 590.623 16.7841C592.886 18.0226 594.68 19.9231 596.004 22.4855C597.328 25.0479 597.99 28.3364 597.99 32.3508C597.99 36.3226 597.349 39.611 596.068 42.2162C594.787 44.7786 593.014 46.7004 590.751 47.9816C588.487 49.2629 585.882 49.9035 582.936 49.9035ZM583.896 43.049C585.818 43.049 587.527 42.6219 589.021 41.7678C590.559 40.9136 591.776 39.6751 592.673 38.0522C593.612 36.4294 594.082 34.5289 594.082 32.3508C594.082 30.1301 593.612 28.2296 592.673 26.6494C591.776 25.0266 590.559 23.7881 589.021 22.9339C587.527 22.0798 585.818 21.6527 583.896 21.6527C581.975 21.6527 580.245 22.0798 578.708 22.9339C577.213 23.7881 575.996 25.0266 575.056 26.6494C574.159 28.2296 573.711 30.1301 573.711 32.3508C573.711 34.5289 574.159 36.4294 575.056 38.0522C575.996 39.6751 577.213 40.9136 578.708 41.7678C580.245 42.6219 581.975 43.049 583.896 43.049ZM594.274 49.455V41.3834L594.595 32.2868L593.954 23.1902V1.92202H601.897V49.455H594.274ZM633.513 49.455V42.5365L633.065 41.0631V28.9556C633.065 26.6067 632.36 24.7917 630.951 23.5105C629.541 22.1865 627.406 21.5246 624.544 21.5246C622.623 21.5246 620.722 21.8235 618.843 22.4214C617.007 23.0193 615.448 23.8521 614.167 24.9198L611.028 19.0903C612.864 17.6809 615.042 16.6346 617.562 15.9513C620.124 15.2253 622.772 14.8623 625.505 14.8623C630.459 14.8623 634.282 16.0581 636.972 18.4497C639.705 20.7986 641.072 24.45 641.072 29.404V49.455H633.513ZM622.751 49.9035C620.188 49.9035 617.946 49.4764 616.024 48.6222C614.103 47.7254 612.608 46.5082 611.54 44.9708C610.515 43.3906 610.003 41.6183 610.003 39.6538C610.003 37.7319 610.451 36.0023 611.348 34.4648C612.287 32.9274 613.804 31.7102 615.896 30.8134C617.989 29.9165 620.765 29.4681 624.224 29.4681H634.154V34.7851H624.801C622.067 34.7851 620.231 35.2336 619.291 36.1304C618.352 36.9846 617.882 38.0522 617.882 39.3335C617.882 40.7855 618.459 41.9386 619.612 42.7927C620.765 43.6469 622.366 44.0739 624.416 44.0739C626.381 44.0739 628.132 43.6255 629.669 42.7287C631.249 41.8318 632.381 40.5079 633.065 38.7569L634.41 43.5615C633.641 45.5687 632.253 47.1275 630.246 48.2379C628.281 49.3483 625.783 49.9035 622.751 49.9035ZM664.225 49.9035C660.467 49.9035 657.563 48.9426 655.513 47.0207C653.463 45.0562 652.438 42.1735 652.438 38.3725V7.68748H660.445V38.1804C660.445 39.8032 660.851 41.0631 661.663 41.9599C662.517 42.8568 663.691 43.3052 665.186 43.3052C666.98 43.3052 668.474 42.8354 669.67 41.8959L671.912 47.5973C670.973 48.366 669.82 48.9426 668.453 49.3269C667.086 49.7113 665.677 49.9035 664.225 49.9035ZM646.801 21.9089V15.5029H669.606V21.9089H646.801ZM693.453 49.9035C689.652 49.9035 686.321 49.1561 683.459 47.6613C680.641 46.1239 678.441 44.0312 676.861 41.3834C675.324 38.7356 674.555 35.7247 674.555 32.3508C674.555 28.9343 675.302 25.9234 676.797 23.3183C678.334 20.6704 680.427 18.5991 683.075 17.1044C685.765 15.6097 688.819 14.8623 692.236 14.8623C695.567 14.8623 698.535 15.5883 701.14 17.0403C703.745 18.4924 705.795 20.5423 707.29 23.1902C708.785 25.838 709.532 28.9556 709.532 32.543C709.532 32.8847 709.511 33.269 709.468 33.6961C709.468 34.1232 709.447 34.5289 709.404 34.9133H680.897V29.5962H705.176L702.037 31.2618C702.08 29.2973 701.674 27.5676 700.82 26.0729C699.966 24.5781 698.791 23.4037 697.296 22.5496C695.844 21.6954 694.157 21.2683 692.236 21.2683C690.271 21.2683 688.541 21.6954 687.047 22.5496C685.595 23.4037 684.441 24.5995 683.587 26.137C682.776 27.6317 682.37 29.404 682.37 31.454V32.7352C682.37 34.7851 682.84 36.6002 683.78 38.1804C684.719 39.7605 686.043 40.9777 687.751 41.8318C689.46 42.686 691.424 43.113 693.645 43.113C695.567 43.113 697.296 42.8141 698.834 42.2162C700.371 41.6183 701.738 40.6787 702.934 39.3975L707.226 44.3302C705.688 46.1239 703.745 47.5119 701.396 48.4941C699.09 49.4337 696.442 49.9035 693.453 49.9035ZM717.736 34.593L716.199 4.61257H725.68L724.078 34.593H717.736ZM720.939 49.9035C719.444 49.9035 718.206 49.4123 717.224 48.4301C716.241 47.4478 715.75 46.2734 715.75 44.9067C715.75 43.5401 716.241 42.387 717.224 41.4475C718.206 40.4652 719.444 39.9741 720.939 39.9741C722.434 39.9741 723.651 40.4652 724.591 41.4475C725.53 42.387 726 43.5401 726 44.9067C726 46.2734 725.53 47.4478 724.591 48.4301C723.651 49.4123 722.434 49.9035 720.939 49.9035Z" fill="url(#paint0_linear_1_1296)"/>
<defs>
<linearGradient id="paint0_linear_1_1296" x1="-6.45961" y1="-5.5971" x2="-0.630872" y2="99.138" gradientUnits="userSpaceOnUse">
<stop stop-color="#15C0EA"/>
<stop offset="1" stop-color="#507EDF"/>
</linearGradient>
</defs>
</svg>
