<svg width="44" height="41" viewBox="0 0 44 41" fill="none" xmlns="http://www.w3.org/2000/svg">
<path d="M3.14286 37.7143H9.42857V34.5714H3.14286V3.14286H15.0759L21.3616 9.42857H40.8571V22H44V9.42857C44 9.00298 43.9182 8.60193 43.7545 8.22545C43.5908 7.84896 43.3616 7.51339 43.067 7.21875C42.7723 6.92411 42.4368 6.69494 42.0603 6.53125C41.6838 6.36756 41.2827 6.28571 40.8571 6.28571H22.6384L17.2857 0.933036C17.1548 0.769344 16.9993 0.63021 16.8192 0.515625C16.6391 0.40104 16.4509 0.311013 16.2545 0.245536C16.058 0.147321 15.8616 0.081844 15.6652 0.0491071C15.4688 0.0163703 15.2723 0 15.0759 0H3.14286C2.71726 0 2.31622 0.081844 1.93973 0.245536C1.56324 0.409227 1.22768 0.638393 0.933036 0.933036C0.638393 1.22768 0.409226 1.56325 0.245536 1.93973C0.0818452 2.31622 0 2.71726 0 3.14286V34.5714C0 34.997 0.0818452 35.3981 0.245536 35.7746C0.409226 36.151 0.638393 36.4866 0.933036 36.7812C1.22768 37.0759 1.56324 37.3051 1.93973 37.4687C2.31622 37.6324 2.71726 37.7143 3.14286 37.7143ZM23.5714 26.7143H12.5714V15.7143H23.5714V26.7143ZM15.7143 23.5714H20.4286V18.8571H15.7143V23.5714ZM23.5714 40.8571H12.5714V29.8571H23.5714V40.8571ZM15.7143 37.7143H20.4286V33H15.7143V37.7143ZM26.7143 26.7143H37.7143V15.7143H26.7143V26.7143ZM34.5714 23.5714H29.8571V18.8571H34.5714V23.5714ZM37.7143 40.8571H26.7143V29.8571H37.7143V40.8571ZM29.8571 37.7143H34.5714V33H29.8571V37.7143Z" fill="url(#paint0_linear_1_945)"/>
<defs>
<linearGradient id="paint0_linear_1_945" x1="0" y1="40.8571" x2="29.4275" y2="-8.66024" gradientUnits="userSpaceOnUse">
<stop stop-color="#15C0EA"/>
<stop offset="1" stop-color="#507EDF"/>
</linearGradient>
</defs>
</svg>
