<svg width="44" height="44" viewBox="0 0 44 44" fill="none" xmlns="http://www.w3.org/2000/svg">
<path d="M9.75959 3.73345C11.5609 2.52169 13.5095 1.59649 15.6055 0.957862C17.7015 0.319231 19.8303 -8.44344e-05 21.9918 -8.44344e-05C23.4656 -8.44344e-05 24.9066 0.147292 26.3149 0.442045C27.7231 0.704048 29.0904 1.11343 30.4168 1.67018C31.7432 2.22694 33.0123 2.89832 34.2241 3.68432C35.4031 4.50308 36.5166 5.42009 37.5646 6.43535C38.5798 7.48336 39.4969 8.59687 40.3156 9.77588C41.1016 10.9876 41.773 12.2567 42.3298 13.5831C42.8865 14.9095 43.2959 16.2768 43.5579 17.6851C43.8526 19.0933 44 20.5344 44 22.0081C44 24.1696 43.6807 26.2984 43.0421 28.3944C42.4034 30.4904 41.4782 32.4391 40.2665 34.2404C39.0875 36.0416 37.6547 37.63 35.968 39.0055C34.2814 40.381 32.4228 41.4945 30.3923 42.346C28.3945 43.1648 26.3149 43.6806 24.1533 43.8935C21.9918 44.1064 19.8467 43.9999 17.7179 43.5742C15.5564 43.1484 13.5177 42.4279 11.6018 41.4127C9.6859 40.3974 7.95832 39.1201 6.41906 37.5809C4.87979 36.0416 3.60253 34.314 2.58727 32.3981C1.57201 30.4823 0.851508 28.4435 0.425754 26.282C0 24.1533 -0.106438 22.0081 0.106438 19.8466C0.319315 17.6851 0.835133 15.6054 1.65389 13.6077C2.5054 11.5771 3.61891 9.71857 4.99442 8.03193C6.36993 6.34529 7.95832 4.91246 9.75959 3.73345ZM11.5281 37.6791C13.0674 38.7271 14.7294 39.5213 16.5143 40.0617C18.2992 40.6021 20.1251 40.8723 21.9918 40.8723C24.4808 40.8723 26.888 40.3974 29.2133 39.4476C31.5385 38.4979 33.5854 37.1388 35.3539 35.3702C37.1225 33.6017 38.4816 31.5548 39.4314 29.2296C40.3811 26.9043 40.856 24.4971 40.856 22.0081C40.856 20.1414 40.5858 18.3155 40.0454 16.5306C39.505 14.7457 38.7108 13.0837 37.6628 11.5444C36.6476 9.97238 35.4194 8.59687 33.9784 7.41786C32.5374 6.23885 30.949 5.28909 29.2133 4.56858C27.4775 3.84808 25.6844 3.39776 23.834 3.21763C21.9836 3.03751 20.1414 3.12757 18.3074 3.48782C16.4734 3.84808 14.7376 4.47033 13.1001 5.35459C11.4626 6.23885 9.97246 7.33598 8.6297 8.64599C7.31969 9.98876 6.22256 11.4789 5.3383 13.1164C4.45404 14.7539 3.83178 16.4897 3.47153 18.3237C3.11128 20.1577 3.02121 21.9999 3.20134 23.8503C3.38147 25.7007 3.83178 27.4938 4.55229 29.2296C5.2728 30.9653 6.22256 32.5537 7.40157 33.9947C8.58058 35.4357 9.95609 36.6639 11.5281 37.6791ZM10.9877 22.6467L18.8478 30.5068L32.9959 16.3587L30.7853 14.148L18.8478 26.0855L13.1984 20.4361L10.9877 22.6467Z" fill="url(#paint0_linear_1_954)"/>
<defs>
<linearGradient id="paint0_linear_1_954" x1="0" y1="43.9999" x2="32.7628" y2="-7.19191" gradientUnits="userSpaceOnUse">
<stop stop-color="#15C0EA"/>
<stop offset="1" stop-color="#507EDF"/>
</linearGradient>
</defs>
</svg>
