<svg width="40" height="47" viewBox="0 0 40 47" fill="none" xmlns="http://www.w3.org/2000/svg">
<path d="M26.6333 4.7H31.3333C31.7576 4.7 32.1575 4.7816 32.5328 4.94479C32.9082 5.10799 33.2427 5.33646 33.5365 5.63021C33.8302 5.92396 34.0587 6.25851 34.2219 6.63385C34.3851 7.0092 34.4667 7.40903 34.4667 7.83333V15.6667H31.3333V7.83333H26.6333V12.5333H7.83333V7.83333H3.13333V40.7333H17.2333V43.8667H3.13333C2.70903 43.8667 2.3092 43.7851 1.93385 43.6219C1.55851 43.4587 1.22396 43.2302 0.930208 42.9365C0.636458 42.6427 0.407986 42.3082 0.244792 41.9328C0.0815972 41.5575 0 41.1576 0 40.7333V7.83333C0 7.40903 0.0815972 7.0092 0.244792 6.63385C0.407986 6.25851 0.636458 5.92396 0.930208 5.63021C1.22396 5.33646 1.55851 5.10799 1.93385 4.94479C2.3092 4.7816 2.70903 4.7 3.13333 4.7H7.83333V3.13333C7.83333 2.70903 7.91493 2.3092 8.07812 1.93385C8.24132 1.55851 8.46979 1.22396 8.76354 0.930208C9.05729 0.636458 9.39184 0.407987 9.76719 0.244792C10.1425 0.0815959 10.5424 0 10.9667 0H23.5C23.9243 0 24.3241 0.0815959 24.6995 0.244792C25.0748 0.407987 25.4094 0.636458 25.7031 0.930208C25.9969 1.22396 26.2253 1.55851 26.3885 1.93385C26.5517 2.3092 26.6333 2.70903 26.6333 3.13333V4.7ZM10.9667 9.4H23.5V3.13333H10.9667V9.4ZM38.0406 23.6958C38.3997 24.3813 38.6771 25.1075 38.8729 25.8745C39.0687 26.6415 39.1667 27.4167 39.1667 28.2C39.1667 28.8528 39.1014 29.5056 38.9708 30.1583C38.8403 30.8111 38.6281 31.4312 38.3344 32.0187C38.0733 32.6389 37.7469 33.2101 37.3552 33.7323C36.9635 34.2545 36.5229 34.7441 36.0333 35.201V47L29.7667 44.0135L23.5 47V35.201C22.9125 34.6788 22.3984 34.0913 21.9578 33.4385C21.5172 32.7858 21.1663 32.084 20.9052 31.3333C20.6441 30.6153 20.4809 29.8646 20.4156 29.0813C20.3503 28.2979 20.3667 27.5146 20.4646 26.7313C20.5951 25.9479 20.8155 25.1972 21.1255 24.4792C21.4356 23.7611 21.8354 23.092 22.325 22.4719C22.7819 21.8517 23.3205 21.2969 23.9406 20.8073C24.5608 20.3177 25.2299 19.9097 25.9479 19.5833C26.666 19.2569 27.4085 19.0285 28.1755 18.8979C28.9425 18.7674 29.7177 18.7347 30.501 18.8C31.2844 18.8653 32.0514 19.0285 32.8021 19.2896C33.5528 19.5507 34.2545 19.8934 34.9073 20.3177C35.5601 20.742 36.1476 21.2398 36.6698 21.8109C37.192 22.3821 37.649 23.0104 38.0406 23.6958ZM29.7667 40.5865L32.9 42.0552V37.0615C31.8882 37.4205 30.8437 37.6 29.7667 37.6C28.6896 37.6 27.6451 37.4205 26.6333 37.0615V42.0552L29.7667 40.5865ZM26.2906 33.3896C26.8128 33.7486 27.3677 34.0179 27.9552 34.1974C28.5427 34.3769 29.1465 34.4667 29.7667 34.4667C30.5826 34.4667 31.3741 34.3035 32.1411 33.9771C32.9082 33.6507 33.5854 33.1938 34.1729 32.6063C34.7604 32.0187 35.2174 31.3415 35.5437 30.5745C35.8701 29.8075 36.0333 29.016 36.0333 28.2C36.0333 27.5799 35.9436 26.976 35.7641 26.3885C35.5845 25.801 35.3153 25.2462 34.9562 24.724C34.6299 24.2017 34.23 23.7448 33.7568 23.3531C33.2835 22.9615 32.7531 22.6514 32.1656 22.4229C31.5781 22.1618 30.9825 22.0068 30.3786 21.9578C29.7748 21.9089 29.1628 21.9333 28.5427 22.0313C27.9226 22.1618 27.3432 22.374 26.8047 22.6677C26.2661 22.9615 25.7684 23.3368 25.3115 23.7938C24.8872 24.2181 24.5281 24.6995 24.2344 25.238C23.9406 25.7766 23.7285 26.3559 23.5979 26.976C23.5 27.5962 23.4755 28.2082 23.5245 28.812C23.5734 29.4158 23.7285 30.0115 23.9896 30.599C24.2181 31.1865 24.5281 31.7168 24.9198 32.1901C25.3115 32.6634 25.7684 33.0632 26.2906 33.3896Z" fill="url(#paint0_linear_1_963)"/>
<defs>
<linearGradient id="paint0_linear_1_963" x1="0" y1="47" x2="37.2352" y2="-1.48335" gradientUnits="userSpaceOnUse">
<stop stop-color="#15C0EA"/>
<stop offset="1" stop-color="#507EDF"/>
</linearGradient>
</defs>
</svg>
