<svg width="24" height="24" viewBox="0 0 24 24" fill="none" xmlns="http://www.w3.org/2000/svg">
<path d="M5.32341 2.03647C6.30592 1.37551 7.36881 0.870861 8.51209 0.522516C9.65538 0.174173 10.8165 0 11.9955 0C12.7994 0 13.5854 0.0803871 14.3536 0.241161C15.1217 0.384071 15.8675 0.60737 16.591 0.911055C17.3145 1.21474 18.0067 1.58095 18.6677 2.00968C19.3108 2.45627 19.9181 2.95646 20.4898 3.51023C21.0435 4.08188 21.5437 4.68925 21.9903 5.33234C22.4191 5.9933 22.7853 6.68552 23.0889 7.40901C23.3926 8.13249 23.6159 8.8783 23.7588 9.64645C23.9196 10.4146 24 11.2006 24 12.0045C24 13.1835 23.8258 14.3446 23.4775 15.4879C23.1291 16.6312 22.6245 17.6941 21.9635 18.6766C21.3204 19.6591 20.5389 20.5255 19.6189 21.2758C18.6989 22.0261 17.6852 22.6334 16.5776 23.0979C15.4879 23.5445 14.3536 23.8258 13.1745 23.9419C11.9955 24.0581 10.8255 24 9.66431 23.7678C8.4853 23.5355 7.37328 23.1425 6.32825 22.5888C5.28322 22.035 4.3409 21.3383 3.5013 20.4987C2.6617 19.6591 1.96502 18.7168 1.41124 17.6718C0.857462 16.6267 0.464458 15.5147 0.232229 14.3357C0 13.1745 -0.0580573 12.0045 0.0580573 10.8255C0.174172 9.64645 0.455527 8.5121 0.902121 7.42241C1.36658 6.31485 1.97395 5.30108 2.72423 4.38109C3.47451 3.46111 4.3409 2.67957 5.32341 2.03647ZM6.28805 20.5523C7.12765 21.1239 8.03424 21.5571 9.00781 21.8519C9.98139 22.1466 10.9773 22.294 11.9955 22.294C13.3532 22.294 14.6662 22.035 15.9345 21.5169C17.2028 20.9989 18.3193 20.2575 19.284 19.2929C20.2486 18.3282 20.99 17.2118 21.508 15.9434C22.0261 14.6751 22.2851 13.3621 22.2851 12.0045C22.2851 10.9862 22.1377 9.99032 21.8429 9.01675C21.5482 8.04317 21.115 7.13658 20.5434 6.29699C19.9896 5.43952 19.3197 4.68925 18.5337 4.04615C17.7477 3.40305 16.8813 2.885 15.9345 2.492C14.9877 2.099 14.0097 1.85337 13.0004 1.75512C11.9911 1.65687 10.9862 1.70599 9.98586 1.90249C8.98549 2.099 8.0387 2.43841 7.14551 2.92073C6.25233 3.40305 5.43952 4.00149 4.70711 4.71604C3.99256 5.44846 3.39412 6.26126 2.9118 7.15445C2.42948 8.04764 2.09006 8.99442 1.89356 9.99479C1.69706 10.9952 1.64793 12 1.74619 13.0093C1.84444 14.0186 2.09006 14.9967 2.48307 15.9434C2.87607 16.8902 3.39412 17.7566 4.03722 18.5426C4.68031 19.3286 5.43059 19.9985 6.28805 20.5523ZM5.9933 12.3528L10.2806 16.6401L17.9978 8.92296L16.792 7.71716L10.2806 14.2285L7.19911 11.147L5.9933 12.3528Z" fill="url(#paint0_linear_1_1103)"/>
<defs>
<linearGradient id="paint0_linear_1_1103" x1="-0.000210426" y1="23.9982" x2="16.6385" y2="-3.71287" gradientUnits="userSpaceOnUse">
<stop stop-color="#F9C360"/>
<stop offset="1" stop-color="#E87A36"/>
</linearGradient>
</defs>
</svg>
