<svg width="18" height="14" viewBox="0 0 18 14" fill="none" xmlns="http://www.w3.org/2000/svg">
<path d="M6.90698 8.3721C8.29411 8.3721 9.41861 9.49659 9.41861 10.8837C9.41861 12.2709 8.29411 13.3954 6.90698 13.3954C5.51985 13.3954 4.39535 12.2709 4.39535 10.8837C4.39535 9.49659 5.51985 8.3721 6.90698 8.3721Z" fill="white"/>
<path d="M11.093 0C9.70589 -6.06336e-08 8.5814 1.12449 8.5814 2.51163C8.5814 3.89876 9.70589 5.02326 11.093 5.02326C12.4802 5.02326 13.6047 3.89876 13.6047 2.51163C13.6047 1.12449 12.4802 6.06336e-08 11.093 0Z" fill="white"/>
<path d="M6.48838 1.849C6.83516 1.849 7.11628 2.13012 7.11628 2.4769C7.11628 2.82369 6.83516 3.10481 6.48838 3.10481L0.627907 3.10481C0.281123 3.10481 0 2.82369 0 2.4769C0 2.13012 0.281123 1.849 0.627907 1.849H6.48838Z" fill="white"/>
<path d="M11.5116 10.2211C11.1649 10.2211 10.8837 10.5022 10.8837 10.849C10.8837 11.1958 11.1649 11.4769 11.5116 11.4769H17.3721C17.7189 11.4769 18 11.1958 18 10.849C18 10.5022 17.7189 10.2211 17.3721 10.2211H11.5116Z" fill="white"/>
<path d="M0 10.849C0 10.5022 0.281124 10.2211 0.627907 10.2211H2.30233C2.64911 10.2211 2.93023 10.5022 2.93023 10.849C2.93023 11.1958 2.64911 11.4769 2.30233 11.4769H0.627907C0.281124 11.4769 0 11.1958 0 10.849Z" fill="white"/>
<path d="M17.3721 1.849C17.7189 1.849 18 2.13012 18 2.4769C18 2.82369 17.7189 3.10481 17.3721 3.10481L15.6977 3.10481C15.3509 3.10481 15.0698 2.82369 15.0698 2.4769C15.0698 2.13012 15.3509 1.849 15.6977 1.849H17.3721Z" fill="white"/>
</svg>
